<?xml version="1.0" standalone="no"?>
<!DOCTYPE svg PUBLIC "-//W3C//DTD SVG 1.1//EN" "http://www.w3.org/Graphics/SVG/1.1/DTD/svg11.dtd" >
<svg xmlns="http://www.w3.org/2000/svg" xmlns:xlink="http://www.w3.org/1999/xlink" version="1.1">
<metadata>
Created by FontForge 20170731 at Sat Jul 31 05:56:08 2021
 By Aleksey,,,
Copyright (c) 2021 by Foxtype. All rights reserved.
</metadata>
<defs>
<font id="GaroldLogoTypeface-Medium" horiz-adv-x="543" >
  <font-face 
    font-family="Garold Logo Typeface Medium"
    font-weight="500"
    font-stretch="normal"
    units-per-em="1000"
    panose-1="0 0 5 0 0 0 0 0 0 0"
    ascent="800"
    descent="-200"
    x-height="500"
    cap-height="701"
    bbox="-135 -201 1157 815"
    underline-thickness="50"
    underline-position="-150"
    unicode-range="U+0020-2122"
  />
<missing-glyph horiz-adv-x="1519" 
 />
    <glyph glyph-name=".notdef" horiz-adv-x="1519" 
 />
    <glyph glyph-name=".null" horiz-adv-x="823" 
 />
    <glyph glyph-name="nonmarkingreturn" horiz-adv-x="2087" 
 />
    <glyph glyph-name="space" unicode=" " horiz-adv-x="459" 
 />
    <glyph glyph-name="exclam" unicode="!" horiz-adv-x="116" 
d="M67 209h-18l-9 491h37zM37 -2.5q-8 8.5 -8 19.5q0 12 8 20.5t20 8.5q13 0 21 -8.5t8 -20.5q0 -11 -8.5 -19.5t-20.5 -8.5t-20 8.5z" />
    <glyph glyph-name="quotedbl" unicode="&#x22;" horiz-adv-x="212" 
d="M64 517h-19l-8 177h36zM174 517h-19l-8 177h36z" />
    <glyph glyph-name="numbersign" unicode="#" horiz-adv-x="583" 
d="M187 196l-34 -197h-38l34 197h-120v39h127l37 211h-164v39h170l38 215h37l-36 -215h149l37 215h38l-36 -215h127v-39h-133l-39 -211h172v-39h-178l-34 -197h-40l36 197h-150zM232 446l-38 -211h149l38 211h-149z" />
    <glyph glyph-name="dollar" unicode="$" horiz-adv-x="499" 
d="M227 -1v94h-66q-49 0 -87 34t-44 83h39q5 -33 31.5 -55.5t60.5 -22.5h66v197h-66q-35 0 -65.5 19t-48 51.5t-17.5 70.5t17.5 69.5t47.5 49.5t66 18h66v93h38v-93h74q49 0 87 -33.5t43 -82.5h-39q-4 33 -30 55t-61 22h-74v-201h74q35 0 65.5 -19t48 -51t17.5 -70
q0 -58 -37.5 -96t-93.5 -38h-74v-94h-38zM227 367v201h-66q-40 0 -65.5 -27.5t-25.5 -70.5q0 -44 26 -73.5t65 -29.5h66zM339 132q41 0 66.5 26t25.5 69q0 44 -26 73t-66 29h-74v-197h74z" />
    <glyph glyph-name="percent" unicode="%" horiz-adv-x="803" 
d="M104 418q-35 21 -55 57t-20 78q0 43 20 79t55 57t76 21q42 0 77 -21t55 -57t20 -79q0 -42 -20.5 -78t-55.5 -57t-76 -21t-76 21zM481 700l-123 -701h-38l122 701h39zM263.5 470q33.5 34 33.5 83q0 50 -33.5 84.5t-82.5 34.5q-48 0 -81.5 -34.5t-33.5 -84.5t33 -83.5
t82 -33.5t82.5 34zM546 10q-35 21 -55 57t-20 78q0 43 20 79t55 57t76 21q42 0 77 -21t55 -57t20 -79q0 -42 -20.5 -78t-55.5 -57t-76 -21t-76 21zM704.5 61.5q33.5 34.5 33.5 83.5q0 50 -33.5 84.5t-81.5 34.5q-49 0 -82.5 -34.5t-33.5 -84.5t33.5 -84t82.5 -34
q48 0 81.5 34.5z" />
    <glyph glyph-name="ampersand" unicode="&#x26;" horiz-adv-x="617" 
d="M211 0q-50 0 -91.5 25t-66 67t-24.5 92q0 57 29 99.5t83 67.5q-52 25 -82 67.5t-30 97.5q0 52 25 96.5t66.5 71t90.5 26.5h158v-33l-149 1q-41 0 -76.5 -21.5t-56 -58t-20.5 -79.5q0 -41 20.5 -76t56 -55t77.5 -20h259v199h35v-199h73v-35h-73l-1 -210q0 -53 -35 -88
t-88 -35h-180zM380 32q43 0 71.5 27t28.5 68v206h-259q-43 0 -78 -20t-55.5 -55t-20.5 -77q0 -41 20.5 -75.5t55.5 -54t78 -19.5h159z" />
    <glyph glyph-name="quotesingle" unicode="'" horiz-adv-x="96" 
d="M57 521h-19l-9 180h37z" />
    <glyph glyph-name="parenleft" unicode="(" horiz-adv-x="188" 
d="M158 -72q-53 4 -84 37.5t-31 86.5v524q0 52 31.5 85.5t83.5 37.5v-36q-38 -7 -58 -29.5t-20 -63.5v-511q0 -44 19.5 -65.5t58.5 -28.5v-37z" />
    <glyph glyph-name="parenright" unicode=")" horiz-adv-x="160" 
d="M15 -35q40 7 59.5 28.5t19.5 65.5v511q0 78 -79 93v36q52 -4 83.5 -37.5t31.5 -85.5v-524q0 -53 -31 -86.5t-84 -37.5v37z" />
    <glyph glyph-name="asterisk" unicode="*" horiz-adv-x="293" 
d="M123 583h-94v17h89l-62 61l12 12l63 -62v89h17v-92l68 66l11 -12l-62 -62h98v-17h-103l74 -75l-11 -14l-75 76v-103h-17v98l-69 -68l-14 10z" />
    <glyph glyph-name="plus" unicode="+" horiz-adv-x="409" 
d="M214 123h-38v168h-147v37h147v146h38v-146h166v-37h-166v-168z" />
    <glyph glyph-name="comma" unicode="," horiz-adv-x="120" 
d="M91 56l-39 -177l-23 10l26 174z" />
    <glyph glyph-name="hyphen" unicode="-" horiz-adv-x="409" 
d="M380 291h-351v37h351v-37z" />
    <glyph glyph-name="period" unicode="." horiz-adv-x="116" 
d="M37 8.5q-8 8.5 -8 19.5q0 12 8 20.5t20 8.5q13 0 21 -8.5t8 -20.5q0 -11 -8.5 -19.5t-20.5 -8.5t-20 8.5z" />
    <glyph glyph-name="slash" unicode="/" horiz-adv-x="218" 
d="M188 691l-122 -699l-37 6l122 700z" />
    <glyph glyph-name="zero" unicode="0" horiz-adv-x="759" 
d="M202.5 40q-80.5 48 -127 130t-46.5 181t46.5 181t127 130t176.5 48t176.5 -48t127 -130.5t46.5 -180.5q0 -99 -46.5 -181t-127 -130t-176.5 -48t-176.5 48zM439 664q-30 7 -59 7q-86 0 -157 -43t-112.5 -116t-41.5 -161q0 -78 33.5 -145.5t92.5 -112.5t134 -58zM367 32
q88 -3 162 38.5t118 116t44 164.5q0 68 -27 129.5t-75.5 107t-111.5 67.5z" />
    <glyph glyph-name="one" unicode="1" horiz-adv-x="148" 
d="M119 0h-38v663h-52v38h90v-701z" />
    <glyph glyph-name="two" unicode="2" horiz-adv-x="500" 
d="M30 199q0 82 37 127.5t104 45.5h158q48 0 75 41t27 114q0 70 -26.5 108.5t-75.5 38.5h-162q-34 0 -59.5 -23t-30.5 -57h-39q4 49 41.5 83t87.5 34h162q65 0 103.5 -50t38.5 -134q0 -57 -18 -101t-50.5 -68.5t-73.5 -24.5h-158q-52 0 -76.5 -32.5t-24.5 -101.5v-160h332
v-39h-373z" />
    <glyph glyph-name="three" unicode="3" horiz-adv-x="430" 
d="M37 0v32h173q42 0 77.5 19.5t56 54t20.5 75.5q0 42 -20.5 76t-56 54t-77.5 20h-89v39h89q42 0 77.5 19.5t56 54t20.5 75.5q0 43 -21 79.5t-56.5 58t-77.5 21.5l-180 -1v33h191q48 0 89.5 -26.5t66.5 -70.5t25 -94q0 -61 -30.5 -105t-83.5 -63q53 -22 83.5 -66t30.5 -104
q0 -49 -24.5 -90.5t-66 -66t-90.5 -24.5h-183z" />
    <glyph glyph-name="four" unicode="4" horiz-adv-x="472" 
d="M304 0h-39v136h-236l63 565h37l-59 -528h195v155h39v-155h139v-37h-139v-136z" />
    <glyph glyph-name="five" unicode="5" horiz-adv-x="500" 
d="M167 -11q-49 0 -86.5 34t-42.5 83h39q5 -33 31 -56t59 -23h162q49 0 75.5 38.5t26.5 109.5q0 73 -27 113.5t-75 40.5h-158q-67 0 -104 45.5t-37 127.5l-1 199h373v-39h-332v-160q0 -69 25 -102t76 -33h158q41 0 73.5 -24t50.5 -68t18 -100q0 -85 -38.5 -135.5
t-103.5 -50.5h-162z" />
    <glyph glyph-name="six" unicode="6" horiz-adv-x="550" 
d="M29 458q0 70 32.5 128t89 91.5t124.5 33.5q54 0 102 -21t82 -61l-31 -28q-28 33 -68 51.5t-85 18.5q-58 0 -105.5 -28t-74.5 -76.5t-27 -108.5v-66q30 55 85.5 88.5t121.5 33.5q68 0 124.5 -33.5t89 -91.5t32.5 -128q0 -77 -32 -139.5t-88 -97.5t-126 -35t-126 35.5
t-88 97.5t-32 139v197zM94.5 141q26.5 -53 73.5 -82.5t107 -29.5q59 0 106 30t73.5 83t26.5 119q0 60 -27 108.5t-74 76t-105 27.5t-105.5 -28t-74.5 -76.5t-27 -107.5q0 -67 26.5 -120z" />
    <glyph glyph-name="seven" unicode="7" horiz-adv-x="419" 
d="M310 0h-38l77 663h-320v38h361z" />
    <glyph glyph-name="eight" unicode="8" horiz-adv-x="532" 
d="M207 -11q-49 0 -90 26t-64.5 70.5t-23.5 98.5q0 56 30.5 101t80.5 67q-50 22 -80.5 65.5t-30.5 99.5q0 50 23.5 94.5t62.5 71.5t84 27h134q44 0 83 -27t62.5 -71t23.5 -93q0 -60 -32 -105.5t-82 -62.5q50 -18 82 -64.5t32 -105.5q0 -53 -23.5 -97t-64.5 -69.5t-90 -25.5
h-117zM310 370q43 0 78.5 19.5t56 54t20.5 75.5t-19 77.5t-51 58.5t-68 22h-123q-36 0 -67.5 -22t-50.5 -58.5t-19 -77.5t20.5 -75.5t55.5 -54t78 -19.5h89zM310 23q44 0 79.5 20.5t55.5 56.5t20 81q0 42 -20.5 76t-56 54t-78.5 20h-89q-43 0 -78.5 -19.5t-55.5 -54
t-20 -76.5q0 -69 43.5 -113.5t110.5 -44.5h89z" />
    <glyph glyph-name="nine" unicode="9" horiz-adv-x="550" 
d="M61 579q32 62 88 97t126 35t126 -35t88 -97t32 -139v-197q0 -70 -32.5 -128.5t-89 -92t-124.5 -33.5q-54 0 -101.5 21.5t-82.5 61.5l30 28q29 -34 68.5 -52t85.5 -18q61 0 108 28.5t73.5 80.5t26.5 118l-3 36q-41 -59 -89.5 -82.5t-115.5 -23.5q-69 0 -125 33.5t-88.5 91
t-32.5 128.5q0 77 32 139zM96.5 331q26.5 -49 73.5 -76.5t105 -27.5t105.5 28t75 76.5t27.5 108.5q0 67 -26.5 120t-74 82.5t-107.5 29.5q-59 0 -106 -30t-73 -83t-26 -119q0 -60 26.5 -109z" />
    <glyph glyph-name="colon" unicode=":" horiz-adv-x="118" 
d="M39 8.5q-8 8.5 -8 19.5q0 12 8 20.5t20 8.5q13 0 21 -8.5t8 -20.5q0 -11 -8.5 -19.5t-20.5 -8.5t-20 8.5zM37 452.5q-8 8.5 -8 19.5q0 12 8 20.5t20 8.5q13 0 21 -8.5t8 -20.5q0 -11 -8.5 -19.5t-20.5 -8.5t-20 8.5z" />
    <glyph glyph-name="semicolon" unicode=";" horiz-adv-x="120" 
d="M37 452.5q-8 8.5 -8 19.5q0 12 8 20.5t20 8.5q13 0 21 -8.5t8 -20.5q0 -11 -8.5 -19.5t-20.5 -8.5t-20 8.5zM91 56l-39 -177l-23 10l26 174z" />
    <glyph glyph-name="equal" unicode="=" horiz-adv-x="409" 
d="M380 323h-351v37h351v-37zM380 186h-351v37h351v-37z" />
    <glyph glyph-name="question" unicode="?" horiz-adv-x="508" 
d="M30 197q0 83 38 129.5t106 46.5h160q49 0 76.5 41.5t27.5 115.5q0 72 -27 110.5t-77 38.5h-164q-34 0 -60.5 -23t-31.5 -58h-40q5 50 43 85t89 35h164q66 0 105.5 -51t39.5 -137q0 -57 -18.5 -102t-51.5 -70t-75 -25h-160q-52 0 -77 -33t-25 -103v-61h-42v61zM37 2.5
q-8 8.5 -8 20.5q0 13 8 21.5t21 8.5t21.5 -8.5t8.5 -21.5q0 -12 -8.5 -20.5t-21.5 -8.5t-21 8.5z" />
    <glyph glyph-name="at" unicode="@" horiz-adv-x="759" 
d="M75.5 532q46.5 82 127 130t176.5 48t176.5 -48t127 -130.5t46.5 -180.5q0 -81 -32 -152.5t-91 -122.5h-42l-1 140q-27 -53 -75.5 -82t-113.5 -29q-62 0 -112.5 30.5t-80 83t-29.5 116.5q0 66 29 119.5t80 84.5t113 31t113 -31t81 -85t30 -119v-214q44 45 68.5 105.5
t24.5 124.5q0 87 -42 160.5t-113 116.5t-156 43q-86 0 -157 -43t-112.5 -116t-41.5 -161q0 -85 39 -156.5t106 -115t149 -47.5l2 -40q-93 3 -170 52t-121.5 130t-44.5 177q0 99 46.5 181zM215 238q24 -44 66 -69t94 -25t94.5 25t66.5 69t24 98q0 56 -24 101t-66 70.5
t-95 25.5q-52 0 -94 -26t-66 -71t-24 -100q0 -54 24 -98z" />
    <glyph glyph-name="A" unicode="A" 
d="M29 468q0 65 32.5 121t88.5 88.5t122 32.5q65 0 120.5 -33t88.5 -88.5t33 -120.5v-468h-36v290h-413v-290h-36v468zM65 328h411v130q0 59 -27.5 109t-75 79t-103.5 29t-103 -29.5t-74.5 -79t-27.5 -108.5v-130z" />
    <glyph glyph-name="B" unicode="B" horiz-adv-x="554" 
d="M29 0l1 351l-1 350h250q74 0 129.5 -25.5t86 -72t30.5 -107.5q0 -44 -14 -77t-48 -69q34 -36 48 -69t14 -77q0 -61 -30.5 -107.5t-86 -71.5t-129.5 -25h-250zM279 327q94 0 151 46t57 123q0 49 -26.5 87t-73.5 59t-108 21h-214v-336h214zM279 38q61 0 108 21t73.5 58.5
t26.5 86.5q0 37 -13 66t-42 59q-39 -22 -73 -30.5t-80 -8.5h-214v-252h214z" />
    <glyph glyph-name="C" unicode="C" horiz-adv-x="659" 
d="M202.5 40q-80.5 48 -127 130t-46.5 181t46.5 181t127 130t176.5 48q72 0 137 -28t114 -80l-32 -24q-43 45 -99.5 69t-118.5 24q-86 0 -157 -43t-112.5 -116t-41.5 -161t41.5 -161.5t112.5 -116t157 -42.5q57 0 111 21.5t97 60.5l26 -29q-49 -45 -109 -68.5t-126 -23.5
q-96 0 -176.5 48z" />
    <glyph glyph-name="D" unicode="D" horiz-adv-x="667" 
d="M29 1v700l266 -1q94 0 173 -46.5t124.5 -126.5t45.5 -176t-46 -176.5t-125 -127t-173 -46.5h-265zM286 43q85 0 156.5 41.5t113.5 112t42 154.5q0 83 -42 154t-114 113t-156 42h-220v-615z" />
    <glyph glyph-name="E" unicode="E" horiz-adv-x="515" 
d="M485 0h-456v701h456v-38h-418l1 -335h243v-38h-243l-1 -252h418v-38z" />
    <glyph glyph-name="F" unicode="F" horiz-adv-x="515" 
d="M67 0h-38v701h456v-38h-418l1 -335h243v-38h-243z" />
    <glyph glyph-name="G" unicode="G" horiz-adv-x="758" 
d="M203.5 37.5q-80.5 48.5 -127.5 131.5t-47 182t46.5 181.5t127 130.5t176.5 48q63 0 120.5 -21.5t106.5 -63.5l-28 -28q-42 36 -93 55t-105 19q-85 0 -156 -43t-112.5 -116.5t-41.5 -161.5q0 -89 41 -162.5t112 -116.5t157 -43q74 0 139 33.5t109 93t58 135.5h-246v37h289
q-5 -94 -53 -171.5t-126.5 -122.5t-170.5 -45q-95 0 -175.5 48.5z" />
    <glyph glyph-name="H" unicode="H" horiz-adv-x="497" 
d="M67 0h-38v701h38l1 -374h360l3 374h37v-701h-38l-2 290h-360z" />
    <glyph glyph-name="I" unicode="I" horiz-adv-x="96" 
d="M67 0h-38v701h38v-701z" />
    <glyph glyph-name="J" unicode="J" horiz-adv-x="294" 
d="M29 41q55 3 100 31.5t71 76t26 104.5v448h38v-448q0 -69 -30.5 -125t-84 -89.5t-120.5 -37.5v40z" />
    <glyph glyph-name="K" unicode="K" horiz-adv-x="569" 
d="M84 0h-55l2 701h39v-646l384 641l34 -19l-201 -342l252 -311l-25 -28l-249 304z" />
    <glyph glyph-name="L" unicode="L" horiz-adv-x="436" 
d="M407 0h-378v701h41v-660h337v-41z" />
    <glyph glyph-name="M" unicode="M" horiz-adv-x="794" 
d="M70 -1h-41l2 701h52l315 -627l308 627h59l-1 -701h-45l1 631l-307 -631h-32l-310 629z" />
    <glyph glyph-name="N" unicode="N" horiz-adv-x="576" 
d="M70 0h-41l2 700h45l428 -642l-4 642h46v-700h-61l-415 625v-625z" />
    <glyph glyph-name="O" unicode="O" horiz-adv-x="759" 
d="M202.5 40q-80.5 48 -127 130t-46.5 181t46.5 181t127 130t176.5 48t176.5 -48t127 -130.5t46.5 -180.5q0 -99 -46.5 -181t-127 -130t-176.5 -48t-176.5 48zM536 74q71 43 113 116t42 161q0 87 -42 160.5t-113 116.5t-156 43q-86 0 -157 -43t-112.5 -116t-41.5 -161
t41.5 -161.5t112.5 -116t157 -42.5q85 0 156 43z" />
    <glyph glyph-name="P" unicode="P" horiz-adv-x="545" 
d="M29 0l1 701h229q119 0 188 -55t69 -150q0 -97 -68.5 -151.5t-188.5 -54.5h-192v-290h-38zM259 327q106 0 162.5 44t56.5 125q0 79 -57.5 123t-161.5 44h-192v-336h192z" />
    <glyph glyph-name="Q" unicode="Q" horiz-adv-x="759" 
d="M430 -5q-27 -3 -51 -3q-96 0 -176.5 48t-127 130t-46.5 181t46.5 181t127 130t176.5 48t176.5 -48t127 -130.5t46.5 -180.5q0 -81 -32.5 -152.5t-91 -122.5t-134.5 -73l39 -109l-39 -13zM417 31l-43 126l39 11l45 -127q68 18 121 63.5t82.5 110t29.5 136.5
q0 87 -42 160.5t-113 116.5t-156 43q-86 0 -157 -43t-112.5 -116t-41.5 -161t41.5 -161.5t112.5 -116t157 -42.5h37z" />
    <glyph glyph-name="R" unicode="R" horiz-adv-x="545" 
d="M29 0l1 701h229q119 0 188 -55t69 -150q0 -85 -53 -137.5t-152 -65.5l142 -282l-36 -14l-147 293h-203v-290h-38zM259 327q106 0 162.5 44t56.5 125q0 79 -57.5 123t-161.5 44h-192v-336h192z" />
    <glyph glyph-name="S" unicode="S" horiz-adv-x="510" 
d="M166 -11q-49 0 -86.5 34t-42.5 83h39q5 -33 31 -56t59 -23h173q43 0 72 37t29 93q0 55 -29.5 94t-71.5 39h-147q-46 0 -83 27.5t-58.5 76t-21.5 108.5q0 54 22.5 102.5t60.5 77.5t80 29h147q50 0 87.5 -33.5t41.5 -82.5h-38q-5 33 -31 55.5t-60 22.5h-147
q-32 0 -60.5 -23.5t-45.5 -63t-17 -84.5q0 -78 34 -126.5t89 -48.5h147q36 0 69 -23.5t53 -63t20 -83.5q0 -46 -19 -84.5t-52 -61t-71 -22.5h-173z" />
    <glyph glyph-name="T" unicode="T" horiz-adv-x="633" 
d="M320 0h-39v663h-252v38h574v-38h-283v-663z" />
    <glyph glyph-name="U" unicode="U" 
d="M150 22q-56 33 -88.5 89t-32.5 122v468h37l2 -453q0 -60 27 -111t73.5 -80.5t101.5 -29.5t101 29.5t73.5 80.5t27.5 111l3 453h39v-468q0 -65 -33 -121.5t-88.5 -89.5t-120.5 -33q-66 0 -122 33z" />
    <glyph glyph-name="V" unicode="V" horiz-adv-x="524" 
d="M314 22q-23 -22 -55 -22q-33 0 -56 23l-174 168v510h41v-490l158 -152q13 -13 32 -13q17 0 30 12l165 153v490h39v-509z" />
    <glyph glyph-name="W" unicode="W" horiz-adv-x="784" 
d="M31 0l-2 700h38v-633l310 633h31l308 -629l-1 629h39l1 -700h-47l-315 641l-319 -641h-43z" />
    <glyph glyph-name="X" unicode="X" 
d="M29 81q0 80 40.5 138.5t116.5 90.5q-74 30 -115.5 88.5t-41.5 137.5v165h36l2 -165q0 -55 27.5 -103t73.5 -76.5t102 -28.5q57 0 103.5 27t73.5 74.5t28 106.5l2 165h37v-165q0 -79 -41.5 -137.5t-115.5 -88.5q75 -33 116 -92.5t41 -136.5v-81h-39v80q0 59 -27 107
t-74 75.5t-104 27.5t-103 -27.5t-72.5 -75t-26.5 -106.5l-2 -81h-37v81z" />
    <glyph glyph-name="Y" unicode="Y" 
d="M254 289q-62 4 -114 38t-81.5 87.5t-29.5 115.5v170h37l3 -168q0 -58 26 -104.5t72 -73t103 -26.5q56 0 101.5 26t71.5 72t28 106l5 168h38v-170q0 -61 -29.5 -114t-80 -87.5t-111.5 -39.5v-289h-39v289z" />
    <glyph glyph-name="Z" unicode="Z" horiz-adv-x="519" 
d="M474 0h-442l-3 40l408 620h-405l-1 40h458v-41l-401 -619h386v-40z" />
    <glyph glyph-name="bracketleft" unicode="[" horiz-adv-x="174" 
d="M144 -72q-53 4 -84 37.5t-31 86.5v524q0 52 31.5 85.5t83.5 37.5v-36q-38 -7 -58 -29.5t-20 -63.5v-511q0 -44 19.5 -65.5t58.5 -28.5v-37z" />
    <glyph glyph-name="backslash" unicode="\" horiz-adv-x="218" 
d="M188 -2l-37 -6l-122 699l37 7z" />
    <glyph glyph-name="bracketright" unicode="]" horiz-adv-x="174" 
d="M29 -35q40 7 59.5 28.5t19.5 65.5v511q0 78 -79 93v36q52 -4 83.5 -37.5t31.5 -85.5v-524q0 -53 -31 -86.5t-84 -37.5v37z" />
    <glyph glyph-name="underscore" unicode="_" horiz-adv-x="409" 
d="M380 -4h-351v37h351v-37z" />
    <glyph glyph-name="a" unicode="a" horiz-adv-x="550" 
d="M61 374.5q32 59.5 88.5 93.5t125.5 34q67 0 121.5 -32.5t86.5 -88.5v119h38v-499h-22l-16 99q-40 -56 -90.5 -82.5t-117.5 -27.5q-69 0 -125.5 33t-88.5 90.5t-32 128.5q0 73 32 132.5zM96.5 134q26.5 -48 73.5 -75.5t105 -27.5t105.5 27.5t75 75.5t27.5 108
q0 63 -27 113.5t-74.5 79t-106.5 28.5q-58 0 -104.5 -29t-73.5 -79.5t-27 -112.5q0 -60 26.5 -108z" />
    <glyph glyph-name="b" unicode="b" horiz-adv-x="550" 
d="M29 0v700h39v-313q75 115 207 115q69 0 125 -33t88.5 -91t32.5 -128q0 -73 -32 -132.5t-88.5 -93.5t-125.5 -34q-66 0 -121 32.5t-86 88.5l-17 -111h-22zM94.5 137q26.5 -50 74 -78.5t106.5 -28.5q58 0 105 28.5t74 79t27 112.5q0 60 -27 108.5t-74 76t-105 27.5
q-59 0 -106 -27.5t-74 -76t-27 -108.5q0 -63 26.5 -113z" />
    <glyph glyph-name="c" unicode="c" horiz-adv-x="477" 
d="M150 21.5q-56 33.5 -88.5 91.5t-32.5 129q0 73 32 132.5t88.5 93.5t125.5 34q49 0 93.5 -19t79.5 -54l-29 -24q-28 28 -65 43t-79 15q-58 0 -104.5 -29t-73.5 -79.5t-27 -112.5q0 -60 26.5 -108.5t73.5 -76.5t105 -28q37 0 73 13.5t64 37.5l27 -29q-34 -31 -76 -47
t-88 -16q-69 0 -125 33.5z" />
    <glyph glyph-name="d" unicode="d" horiz-adv-x="550" 
d="M521 0h-22l-16 111q-31 -56 -86 -88.5t-121 -32.5q-69 0 -125.5 34t-89 93.5t-32.5 132.5q0 70 32.5 128t89 91t125.5 33q68 0 119 -29.5t88 -85.5v313h38v-700zM456 358.5q-27 48.5 -74.5 76t-105.5 27.5q-59 0 -106 -27.5t-73.5 -76t-26.5 -108.5q0 -62 27 -112.5
t74 -79t105 -28.5q59 0 106 28.5t74 78.5t27 113q0 60 -27 108.5z" />
    <glyph glyph-name="e" unicode="e" horiz-adv-x="522" 
d="M150.5 22.5q-56.5 33.5 -89 92t-32.5 128.5q0 73 32 132.5t88.5 93.5t125.5 34q151 0 218 -147l-390 -231q27 -45 72.5 -70t99.5 -25q37 0 73 13.5t64 37.5l27 -29q-34 -31 -76 -47t-88 -16q-68 0 -124.5 33.5zM441 367q-27 47 -69 72t-97 25q-58 0 -104.5 -29
t-73.5 -79.5t-27 -112.5q0 -45 15 -80z" />
    <glyph glyph-name="f" unicode="f" horiz-adv-x="298" 
d="M74 0v381h-45v37h45v74q0 54 26 100.5t70.5 75.5t98.5 32l-2 -30q-43 -6 -78.5 -31t-55.5 -64t-20 -83v-74h139v-37h-139v-381h-39z" />
    <glyph glyph-name="g" unicode="g" horiz-adv-x="550" 
d="M61 381.5q32 59.5 88.5 93.5t125.5 34q66 0 121 -33t87 -89v113h38v-449q0 -70 -32.5 -127.5t-89 -91t-124.5 -33.5q-54 0 -101.5 21.5t-82.5 61.5l30 27q29 -33 69 -51t85 -18q58 0 105.5 27.5t75 76t27.5 107.5v58q-41 -59 -90 -86t-118 -28q-69 0 -125 33.5
t-88.5 91.5t-32.5 129q0 73 32 132.5zM96.5 140.5q26.5 -48.5 73.5 -76.5t105 -28t105.5 28t75 76.5t27.5 108.5q0 63 -27 113.5t-74.5 79t-106.5 28.5q-58 0 -104.5 -29t-73.5 -79.5t-27 -112.5q0 -60 26.5 -108.5z" />
    <glyph glyph-name="h" unicode="h" horiz-adv-x="524" 
d="M29 0v700h39v-303q43 59 89.5 85.5t107.5 26.5q66 0 118.5 -32t81.5 -89.5t29 -130.5v-257h-41v257q0 62 -23.5 110.5t-66.5 75t-98 26.5q-57 0 -102 -27t-70 -75.5t-25 -109.5v-257h-39z" />
    <glyph glyph-name="i" unicode="i" horiz-adv-x="116" 
d="M37 655.5q-8 8.5 -8 19.5q0 12 8 20.5t20 8.5q13 0 21 -8.5t8 -20.5q0 -11 -8.5 -19.5t-20.5 -8.5t-20 8.5zM78 0h-39v500h39v-500z" />
    <glyph glyph-name="j" unicode="j" horiz-adv-x="300" 
d="M221.5 655.5q-8.5 8.5 -8.5 19.5q0 12 8.5 20.5t19.5 8.5q12 0 21 -8.5t9 -20.5q0 -11 -9 -19.5t-21 -8.5q-11 0 -19.5 8.5zM29 -160q55 3 100 31.5t71 75.5t26 104v449h38v-449q0 -69 -30.5 -124.5t-84 -89t-120.5 -37.5v40z" />
    <glyph glyph-name="k" unicode="k" horiz-adv-x="482" 
d="M70 1h-41l1 700h40v-637l353 422l29 -26l-200 -244l197 -185l-28 -26l-194 179z" />
    <glyph glyph-name="l" unicode="l" horiz-adv-x="97" 
d="M68 0h-39v700h39v-700z" />
    <glyph glyph-name="m" unicode="m" horiz-adv-x="949" 
d="M29 -1v501h22l17 -102q43 59 89.5 85.5t107.5 26.5q70 0 118.5 -30t92.5 -97q40 66 91 96.5t124 30.5q67 0 119 -32t81 -89.5t29 -130.5v-259h-41v259q0 62 -23.5 110.5t-66 75t-98.5 26.5q-57 0 -102 -27t-70 -75.5t-25 -109.5v-259h-41v259q0 62 -23.5 110.5t-66.5 75
t-98 26.5q-57 0 -102 -27t-70 -75.5t-25 -109.5v-259h-39z" />
    <glyph glyph-name="n" unicode="n" horiz-adv-x="524" 
d="M29 -1v501h22l17 -101q29 51 82.5 80.5t114.5 29.5q66 0 118.5 -32t81.5 -89.5t29 -130.5v-258h-41v258q0 62 -23.5 110.5t-66.5 75t-98 26.5q-57 0 -102 -27t-70 -75.5t-25 -109.5v-258h-39z" />
    <glyph glyph-name="o" unicode="o" horiz-adv-x="550" 
d="M150.5 24.5q-56.5 34.5 -89 93t-32.5 129.5q0 76 32 136.5t88.5 94t125.5 33.5t125 -34t88.5 -94t32.5 -136q0 -71 -32.5 -129.5t-89 -93t-124.5 -34.5t-124.5 34.5zM380.5 59.5q47.5 28.5 75 78t27.5 109.5q0 66 -27 117t-74 79t-107 28q-58 0 -105 -28.5t-73.5 -79.5
t-26.5 -116q0 -60 26.5 -109.5t73.5 -78t105 -28.5t105.5 28.5z" />
    <glyph glyph-name="p" unicode="p" horiz-adv-x="550" 
d="M29 500h39v-112q31 56 86 88.5t121 32.5q69 0 125.5 -33.5t88.5 -94t32 -136.5q0 -71 -32.5 -129t-89 -92t-124.5 -34q-132 0 -207 115v-305h-39v700zM95 133.5q27 -48.5 74 -76t106 -27.5q58 0 105 28.5t74 77.5t27 109q0 65 -27 116t-74 79.5t-105 28.5
q-60 0 -107 -28.5t-73.5 -80.5t-26.5 -118q0 -60 27 -108.5z" />
    <glyph glyph-name="q" unicode="q" horiz-adv-x="578" 
d="M521 500v-700h-38v306q-37 -56 -88 -85.5t-119 -29.5q-69 0 -125.5 32.5t-89 90.5t-32.5 132q0 73 32.5 133.5t89 95.5t125.5 35q67 0 121.5 -33t85.5 -89v112h38zM456 360.5q-27 51.5 -74 80.5t-106 29q-58 0 -105 -29.5t-74 -81t-27 -113.5q0 -63 26.5 -112t73.5 -76
t106 -27t106 27.5t74 76.5t27 111q0 63 -27 114.5z" />
    <glyph glyph-name="r" unicode="r" horiz-adv-x="252" 
d="M29 0v500h39v-89q26 41 66.5 65t88.5 24v-36q-43 -1 -78.5 -25t-56 -63.5t-20.5 -83.5v-292h-39z" />
    <glyph glyph-name="s" unicode="s" horiz-adv-x="499" 
d="M161 -11q-49 0 -87 34t-44 83h39q5 -33 31.5 -56t60.5 -23h178q41 0 66.5 26.5t25.5 68.5q0 45 -26 74t-66 29h-178q-35 0 -65.5 19t-48 51.5t-17.5 70.5q0 57 38 96.5t93 39.5h178q49 0 87 -33.5t43 -82.5h-39q-4 34 -30 56t-61 22h-178q-40 0 -65.5 -27.5t-25.5 -70.5
q0 -45 25.5 -74.5t65.5 -29.5h178q35 0 65.5 -18.5t48 -51t17.5 -70.5q0 -57 -37.5 -95t-93.5 -38h-178z" />
    <glyph glyph-name="t" unicode="t" horiz-adv-x="298" 
d="M268 0q-54 4 -98.5 32.5t-70 74.5t-25.5 101v254h-45v38h45v200h39v-200h139v-38h-139v-254q0 -67 43.5 -114.5t110.5 -57.5z" />
    <glyph glyph-name="u" unicode="u" horiz-adv-x="524" 
d="M29 500h41v-257q0 -62 23.5 -110.5t66 -75t98.5 -26.5q57 0 102 27t70 75.5t25 109.5v257h39v-500h-22l-17 100q-32 -55 -83 -82.5t-114 -27.5q-66 0 -118.5 32t-81.5 89.5t-29 131.5v257z" />
    <glyph glyph-name="v" unicode="v" horiz-adv-x="524" 
d="M314 22q-23 -22 -55 -22q-33 0 -56 23l-174 168v309h41v-289l158 -156q13 -13 32 -13q17 0 30 12l165 157v289h39v-308z" />
    <glyph glyph-name="w" unicode="w" horiz-adv-x="949" 
d="M29 500h41v-257q0 -62 23.5 -110.5t66 -75t98.5 -26.5q57 0 102 27t70 75.5t25 109.5v257h41v-257q0 -63 23.5 -111t66.5 -74.5t99 -26.5q57 0 102 27t70 75.5t25 109.5v257h38v-500h-21l-17 101q-34 -56 -84.5 -83.5t-112.5 -27.5q-74 1 -125.5 33t-83.5 102
q-42 -75 -92.5 -104.5t-125.5 -30.5q-66 0 -118.5 32t-81.5 89.5t-29 131.5v257z" />
    <glyph glyph-name="x" unicode="x" horiz-adv-x="509" 
d="M29 11q0 87 37 149.5t106 90.5q-66 24 -104.5 86.5t-38.5 143.5v19h41v-16q0 -96 50 -151.5t134 -55.5q86 0 136 56t50 151v16h40v-19q0 -83 -40 -145t-106 -85q65 -21 105.5 -87.5t40.5 -152.5v-12h-40v12q0 61 -22 109.5t-61 75.5t-88 27h-30q-48 0 -86.5 -27.5
t-60.5 -75.5t-22 -109v-12h-41v12z" />
    <glyph glyph-name="y" unicode="y" horiz-adv-x="516" 
d="M144 -179q-47 21 -81 60l30 26q28 -32 67 -49.5t84 -17.5q60 0 106 28.5t72 79t26 115.5l-1 32q-54 -103 -193 -105q-65 0 -116.5 31.5t-80 88t-28.5 129.5v261h40v-261q0 -62 23 -109.5t65 -73.5t97 -26q56 0 100.5 26.5t69 74t24.5 108.5v261h38v-449q0 -69 -32 -126.5
t-87.5 -91t-122.5 -33.5q-53 0 -100 21z" />
    <glyph glyph-name="z" unicode="z" horiz-adv-x="531" 
d="M479 -1h-448l-2 39l414 422h-408v40h467v-40l-410 -420h387v-41z" />
    <glyph glyph-name="braceleft" unicode="{" horiz-adv-x="217" 
d="M188 -69q-53 4 -84.5 37.5t-31.5 86.5v139q0 26 -11.5 48t-31.5 35v76q20 13 31.5 35t11.5 48v140q0 52 31.5 85.5t84.5 37.5l-1 -40q-35 -5 -57 -32.5t-22 -66.5v-142q0 -68 -52 -103q52 -37 52 -103v-142q0 -38 22 -65.5t57 -32.5z" />
    <glyph glyph-name="bar" unicode="|" horiz-adv-x="138" 
d="M109 0h-80v701h80v-701z" />
    <glyph glyph-name="braceright" unicode="}" horiz-adv-x="220" 
d="M33 -28q35 5 57 32.5t22 65.5v142q0 66 52 103q-52 35 -52 103v142q0 39 -22 66.5t-57 32.5l-1 40q53 -4 84.5 -37.5t31.5 -85.5v-140q0 -26 11.5 -48t31.5 -35v-76q-20 -13 -31.5 -35t-11.5 -48v-139q0 -53 -31.5 -86.5t-84.5 -37.5z" />
    <glyph glyph-name="exclamdown" unicode="&#xa1;" horiz-adv-x="116" 
d="M77.5 730.5q8.5 -8.5 8.5 -19.5q0 -12 -8 -20.5t-21 -8.5q-12 0 -20 8.5t-8 20.5q0 11 8 19.5t20 8.5t20.5 -8.5zM40 28l9 491h18l10 -491h-37z" />
    <glyph glyph-name="cent" unicode="&#xa2;" horiz-adv-x="470" 
d="M432 154q-64 -57 -148 -62v-92h-37v93q-62 5 -111.5 39t-78 89t-28.5 121q0 67 28.5 123.5t78 91t111.5 40.5v104h37v-103q45 -3 85.5 -21.5t71.5 -51.5l-29 -23q-51 51 -128 57v-426q33 2 64.5 15t56.5 34zM92 241.5q23 -45.5 63.5 -74t91.5 -33.5v424
q-51 -6 -91.5 -35.5t-63.5 -76.5t-23 -104q0 -55 23 -100.5z" />
    <glyph glyph-name="sterling" unicode="&#xa3;" horiz-adv-x="572" 
d="M191 0v290h-162v37h162v250q0 54 35 89t89 35h227v-38h-214q-43 0 -71 -28.5t-28 -71.5l1 -236h191v-37h-190l-3 -252h314v-38h-351z" />
    <glyph glyph-name="yen" unicode="&#xa5;" 
d="M255 0v71h-153v39h153v65h-153v39h153v75q-63 4 -114.5 38t-81.5 87.5t-30 115.5v171h37l3 -169q0 -58 26 -104.5t72 -73t103 -26.5q56 0 101 25.5t71.5 72t28.5 106.5l6 169h37v-171q0 -61 -29.5 -114t-80 -87.5t-111.5 -39.5v-75h167v-39h-167v-65h167v-39h-167v-71
h-38z" />
    <glyph glyph-name="section" unicode="&#xa7;" horiz-adv-x="499" 
d="M161 -11q-49 0 -87 34t-44 83h39q5 -33 31.5 -56t60.5 -23h178q44 0 68 22.5t24 62.5q0 45 -26 73.5t-66 28.5h-178q-35 0 -65.5 17.5t-48 48t-17.5 66.5q-1 43 14 69.5t51 45.5q-65 33 -65 112q0 58 37.5 98t93.5 40h178q49 0 87 -33.5t43 -82.5h-39q-4 33 -30 55.5
t-61 22.5h-178q-40 0 -65.5 -27t-25.5 -69q0 -46 23.5 -70.5t67.5 -24.5h178q32 0 62.5 -20t49.5 -52t19 -65q0 -35 -19.5 -67.5t-48.5 -42.5q32 -20 50 -52.5t18 -70.5q0 -55 -36.5 -89t-94.5 -34h-178zM339 254q39 0 65.5 24t26.5 60q0 45 -26 74t-66 29h-180
q-89 -11 -89 -95q0 -39 26.5 -65.5t64.5 -26.5h178z" />
    <glyph glyph-name="copyright" unicode="&#xa9;" horiz-adv-x="759" 
d="M202.5 40q-80.5 48 -127 130t-46.5 181t46.5 181t127 130t176.5 48t176.5 -48t127 -130.5t46.5 -180.5q0 -99 -46.5 -181t-127 -130t-176.5 -48t-176.5 48zM536 74q71 43 113 116t42 161q0 87 -42 160.5t-113 116.5t-156 43q-86 0 -157 -43t-112.5 -116t-41.5 -161
t41.5 -161.5t112.5 -116t157 -42.5q85 0 156 43zM246 131q-55 33 -86.5 90t-31.5 127q0 71 31.5 130t87 92.5t122.5 33.5q49 0 92.5 -19t77.5 -54l-29 -23q-27 27 -63.5 42t-77.5 15q-57 0 -103 -28.5t-72.5 -78t-26.5 -110.5q0 -59 26.5 -106.5t72.5 -75t103 -27.5
q37 0 72 13t62 36l27 -28q-33 -30 -74 -46t-87 -16q-68 0 -123 33z" />
    <glyph glyph-name="ordfeminine" unicode="&#xaa;" horiz-adv-x="304" 
d="M29 367h19v137h208v-137h18l-1 226q0 55 -35.5 91t-86.5 36t-86 -36t-35 -91zM49 591q0 45 29 78t74 33t74 -34t29 -77v-69h-206v69z" />
    <glyph glyph-name="guillemotleft" unicode="&#xab;" horiz-adv-x="448" 
d="M212 137l-40 -34l-143 161l150 159l38 -38l-118 -121zM413 137l-39 -34l-144 161l151 159l38 -38l-119 -121z" />
    <glyph glyph-name="registered" unicode="&#xae;" horiz-adv-x="583" 
d="M159 234q-60 36 -95 97.5t-35 135.5t35 135.5t95 97.5t132 36t132 -35.5t95 -97.5t35 -136q0 -73 -35 -135t-95.5 -98t-131.5 -36q-72 0 -132 36zM405.5 264.5q52.5 31.5 83 85.5t30.5 118q0 63 -30.5 116.5t-83 85t-114.5 31.5t-114.5 -31t-82.5 -84.5t-30 -117.5
q0 -65 30 -119t82 -85t115 -31q62 0 114.5 31.5zM343 342l-44 68h-70v-71h-23v260h93q38 0 65.5 -27.5t27.5 -65.5q0 -31 -21.5 -58.5t-47.5 -32.5l46 -73h-26zM297 433q28 0 50 21.5t22 52.5q0 29 -21.5 49.5t-50.5 20.5h-68v-144h68z" />
    <glyph glyph-name="periodcentered" unicode="&#xb7;" horiz-adv-x="116" 
d="M37 286.5q-8 8.5 -8 19.5q0 12 8 20.5t20 8.5q13 0 21 -8.5t8 -20.5q0 -11 -8.5 -19.5t-20.5 -8.5t-20 8.5z" />
    <glyph glyph-name="guillemotright" unicode="&#xbb;" horiz-adv-x="448" 
d="M218 264l-144 -161l-39 34l113 127l-119 121l38 38zM419 264l-143 -161l-40 34l113 127l-118 121l38 38z" />
    <glyph glyph-name="questiondown" unicode="&#xbf;" horiz-adv-x="500" 
d="M463 722.5q8 -8.5 8 -19.5q0 -13 -8 -21t-20 -8q-13 0 -21.5 8t-8.5 21q0 11 8.5 19.5t21.5 8.5q12 0 20 -8.5zM470 532q0 -82 -37 -127.5t-104 -45.5h-158q-48 0 -75 -41t-27 -114q0 -70 26.5 -108.5t75.5 -38.5h162q34 0 59.5 23t30.5 57h40q-5 -49 -42.5 -83
t-87.5 -34h-162q-65 0 -103.5 49.5t-38.5 134.5q0 57 18 101t50 68.5t74 24.5h158q51 0 75.5 32.5t24.5 101.5v59h41v-59z" />
    <glyph glyph-name="Agrave" unicode="&#xc0;" 
d="M29 468q0 65 32.5 121t88.5 88.5t122 32.5q65 0 120.5 -33t88.5 -88.5t33 -120.5v-468h-36v290h-413v-290h-36v468zM65 328h411v130q0 59 -27.5 109t-75 79t-103.5 29t-103 -29.5t-74.5 -79t-27.5 -108.5v-130zM295 749h-24l-26 49h36z" />
    <glyph glyph-name="Aacute" unicode="&#xc1;" 
d="M29 468q0 65 32.5 121t88.5 88.5t122 32.5q65 0 120.5 -33t88.5 -88.5t33 -120.5v-468h-36v290h-413v-290h-36v468zM65 328h411v130q0 59 -27.5 109t-75 79t-103.5 29t-103 -29.5t-74.5 -79t-27.5 -108.5v-130zM278 749h-24l14 49h35z" />
    <glyph glyph-name="Acircumflex" unicode="&#xc2;" 
d="M29 468q0 65 32.5 121t88.5 88.5t122 32.5q65 0 120.5 -33t88.5 -88.5t33 -120.5v-468h-36v290h-413v-290h-36v468zM65 328h411v130q0 59 -27.5 109t-75 79t-103.5 29t-103 -29.5t-74.5 -79t-27.5 -108.5v-130zM249 746h-35l33 52h40l33 -52h-37l-16 23z" />
    <glyph glyph-name="Atilde" unicode="&#xc3;" 
d="M29 468q0 65 32.5 121t88.5 88.5t122 32.5q65 0 120.5 -33t88.5 -88.5t33 -120.5v-468h-36v290h-413v-290h-36v468zM65 328h411v130q0 59 -27.5 109t-75 79t-103.5 29t-103 -29.5t-74.5 -79t-27.5 -108.5v-130zM256 765l-29 -21l-33 45l25 11l14 -20l28 21l30 -38
l-21 -15z" />
    <glyph glyph-name="Adieresis" unicode="&#xc4;" 
d="M29 468q0 65 32.5 121t88.5 88.5t122 32.5q65 0 120.5 -33t88.5 -88.5t33 -120.5v-468h-36v290h-413v-290h-36v468zM65 328h411v130q0 59 -27.5 109t-75 79t-103.5 29t-103 -29.5t-74.5 -79t-27.5 -108.5v-130zM236 750h-26v48h26v-48zM282 749h-27v49h27v-49z" />
    <glyph glyph-name="Aring" unicode="&#xc5;" 
d="M293 750q11 11 11 26q0 16 -10.5 27.5t-26.5 11.5t-26.5 -11t-10.5 -28q0 -15 10.5 -26t26.5 -11q15 0 26 11zM255 763.5q-5 5.5 -5 13.5t5 13.5t12 5.5q8 0 13 -5.5t5 -13.5t-5 -13.5t-13 -5.5q-7 0 -12 5.5zM29 468q0 65 32.5 121t88.5 88.5t122 32.5q65 0 120.5 -33
t88.5 -88.5t33 -120.5v-468h-36v290h-413v-290h-36v468zM65 328h411v130q0 59 -27.5 109t-75 79t-103.5 29t-103 -29.5t-74.5 -79t-27.5 -108.5v-130z" />
    <glyph glyph-name="AE" unicode="&#xc6;" horiz-adv-x="971" 
d="M941 701v-38h-418l1 -335h243v-38h-243l-1 -252h418v-38h-463v290h-413v-290h-36v468q0 65 32.5 121t88.5 88.5t122 32.5q67 0 124.5 -35t88.5 -93v119h456zM476 328v130q0 59 -27.5 109t-75 79t-103.5 29t-103 -29.5t-74.5 -79t-27.5 -108.5v-130h411z" />
    <glyph glyph-name="Ccedilla" unicode="&#xc7;" horiz-adv-x="670" 
d="M76.5 536q47.5 84 129 132.5t179.5 48.5q74 0 140 -28.5t116 -81.5l-33 -25q-44 45 -101.5 69.5t-120.5 24.5q-87 0 -159.5 -43.5t-114.5 -118t-42 -163.5t42 -163.5t114.5 -117.5t159.5 -43q59 0 114 21.5t97 61.5l27 -30q-46 -43 -103.5 -67t-120.5 -26v-30
q34 -9 50.5 -26.5t16.5 -52.5q0 -39 -27 -58.5t-63 -19.5q-30 0 -55.5 19t-36.5 48l24 16q10 -27 29.5 -39.5t38.5 -12.5q20 0 39.5 11t19.5 34q0 30 -20 42t-50 11v58q-93 5 -170.5 54.5t-122 131t-44.5 178.5q0 101 47.5 185z" />
    <glyph glyph-name="Egrave" unicode="&#xc8;" horiz-adv-x="515" 
d="M485 0h-456v701h456v-38h-418l1 -335h243v-38h-243l-1 -252h418v-38zM296 749h-24l-26 49h36z" />
    <glyph glyph-name="Eacute" unicode="&#xc9;" horiz-adv-x="515" 
d="M485 0h-456v701h456v-38h-418l1 -335h243v-38h-243l-1 -252h418v-38zM260 749h-24l14 49h35z" />
    <glyph glyph-name="Ecircumflex" unicode="&#xca;" horiz-adv-x="515" 
d="M485 0h-456v701h456v-38h-418l1 -335h243v-38h-243l-1 -252h418v-38zM251 746h-35l33 52h40l33 -52h-37l-16 23z" />
    <glyph glyph-name="Edieresis" unicode="&#xcb;" horiz-adv-x="515" 
d="M485 0h-456v701h456v-38h-418l1 -335h243v-38h-243l-1 -252h418v-38zM216 750h-26v48h26v-48zM262 749h-27v49h27v-49z" />
    <glyph glyph-name="Igrave" unicode="&#xcc;" horiz-adv-x="136" 
d="M107 0h-38v701h38v-701zM87 749h-24l-26 49h36z" />
    <glyph glyph-name="Iacute" unicode="&#xcd;" horiz-adv-x="132" 
d="M103 798l-25 -49h-24l13 49h36zM71 701v-701h-37v701h37z" />
    <glyph glyph-name="Icircumflex" unicode="&#xce;" horiz-adv-x="576" 
d="M70 0h-41l2 700h45l428 -642l-4 642h46v-700h-61l-415 625v-625zM255 746h-35l33 52h40l33 -52h-37l-16 23z" />
    <glyph glyph-name="Idieresis" unicode="&#xcf;" horiz-adv-x="145" 
d="M111 0h-38v701h38v-701zM63 750h-26v48h26v-48zM109 749h-27v49h27v-49z" />
    <glyph glyph-name="Ntilde" unicode="&#xd1;" horiz-adv-x="576" 
d="M70 0h-41l2 700h45l428 -642l-4 642h46v-700h-61l-415 625v-625zM281 765l-29 -21l-33 45l25 11l14 -20l28 21l30 -38l-21 -15z" />
    <glyph glyph-name="Ograve" unicode="&#xd2;" horiz-adv-x="759" 
d="M378 749h-24l-26 49h36zM202.5 40q-80.5 48 -127 130t-46.5 181t46.5 181t127 130t176.5 48t176.5 -48t127 -130.5t46.5 -180.5q0 -99 -46.5 -181t-127 -130t-176.5 -48t-176.5 48zM536 74q71 43 113 116t42 161q0 87 -42 160.5t-113 116.5t-156 43q-86 0 -157 -43
t-112.5 -116t-41.5 -161t41.5 -161.5t112.5 -116t157 -42.5q85 0 156 43z" />
    <glyph glyph-name="Oacute" unicode="&#xd3;" horiz-adv-x="759" 
d="M403 749h-24l14 49h35zM202.5 40q-80.5 48 -127 130t-46.5 181t46.5 181t127 130t176.5 48t176.5 -48t127 -130.5t46.5 -180.5q0 -99 -46.5 -181t-127 -130t-176.5 -48t-176.5 48zM536 74q71 43 113 116t42 161q0 87 -42 160.5t-113 116.5t-156 43q-86 0 -157 -43
t-112.5 -116t-41.5 -161t41.5 -161.5t112.5 -116t157 -42.5q85 0 156 43z" />
    <glyph glyph-name="Ocircumflex" unicode="&#xd4;" horiz-adv-x="759" 
d="M202.5 40q-80.5 48 -127 130t-46.5 181t46.5 181t127 130t176.5 48t176.5 -48t127 -130.5t46.5 -180.5q0 -99 -46.5 -181t-127 -130t-176.5 -48t-176.5 48zM536 74q71 43 113 116t42 161q0 87 -42 160.5t-113 116.5t-156 43q-86 0 -157 -43t-112.5 -116t-41.5 -161
t41.5 -161.5t112.5 -116t157 -42.5q85 0 156 43zM351 746h-35l33 52h40l33 -52h-37l-16 23z" />
    <glyph glyph-name="Otilde" unicode="&#xd5;" horiz-adv-x="759" 
d="M202.5 40q-80.5 48 -127 130t-46.5 181t46.5 181t127 130t176.5 48t176.5 -48t127 -130.5t46.5 -180.5q0 -99 -46.5 -181t-127 -130t-176.5 -48t-176.5 48zM536 74q71 43 113 116t42 161q0 87 -42 160.5t-113 116.5t-156 43q-86 0 -157 -43t-112.5 -116t-41.5 -161
t41.5 -161.5t112.5 -116t157 -42.5q85 0 156 43zM393 765l-29 -21l-33 45l25 11l14 -20l28 21l30 -38l-21 -15z" />
    <glyph glyph-name="Odieresis" unicode="&#xd6;" horiz-adv-x="759" 
d="M202.5 40q-80.5 48 -127 130t-46.5 181t46.5 181t127 130t176.5 48t176.5 -48t127 -130.5t46.5 -180.5q0 -99 -46.5 -181t-127 -130t-176.5 -48t-176.5 48zM536 74q71 43 113 116t42 161q0 87 -42 160.5t-113 116.5t-156 43q-86 0 -157 -43t-112.5 -116t-41.5 -161
t41.5 -161.5t112.5 -116t157 -42.5q85 0 156 43zM354 750h-26v48h26v-48zM400 749h-27v49h27v-49z" />
    <glyph glyph-name="multiply" unicode="&#xd7;" horiz-adv-x="349" 
d="M57 178l-27 27l119 119l-103 104l26 26l104 -104l103 103l27 -26l-104 -104l118 -117l-27 -26l-117 117z" />
    <glyph glyph-name="Oslash" unicode="&#xd8;" horiz-adv-x="771" 
d="M335 -67l-38 7l11 54q-81 18 -144.5 69.5t-99 126.5t-35.5 161q0 101 47.5 185t129 132.5t179.5 48.5q28 0 77 -7l11 48l38 -8l-11 -53q72 -24 127 -75.5t85 -121.5t30 -149q0 -100 -47.5 -184t-129.5 -132.5t-180 -48.5q-23 0 -39 3zM453 668q-25 8 -67 8
q-87 0 -159.5 -43.5t-114.5 -118t-42 -163.5q0 -77 31 -143t87.5 -112t128.5 -62zM386 27q86 0 158.5 43.5t115 117.5t42.5 163q0 104 -57.5 188t-153.5 119l-137 -631h32z" />
    <glyph glyph-name="Ugrave" unicode="&#xd9;" 
d="M315 749h-24l-26 49h36zM150 22q-56 33 -88.5 89t-32.5 122v468h37l2 -453q0 -60 27 -111t73.5 -80.5t101.5 -29.5t101 29.5t73.5 80.5t27.5 111l3 453h39v-468q0 -65 -33 -121.5t-88.5 -89.5t-120.5 -33q-66 0 -122 33z" />
    <glyph glyph-name="Uacute" unicode="&#xda;" 
d="M339 749h-24l14 49h35zM150 22q-56 33 -88.5 89t-32.5 122v468h37l2 -453q0 -60 27 -111t73.5 -80.5t101.5 -29.5t101 29.5t73.5 80.5t27.5 111l3 453h39v-468q0 -65 -33 -121.5t-88.5 -89.5t-120.5 -33q-66 0 -122 33z" />
    <glyph glyph-name="Ucircumflex" unicode="&#xdb;" 
d="M150 22q-56 33 -88.5 89t-32.5 122v468h37l2 -453q0 -60 27 -111t73.5 -80.5t101.5 -29.5t101 29.5t73.5 80.5t27.5 111l3 453h39v-468q0 -65 -33 -121.5t-88.5 -89.5t-120.5 -33q-66 0 -122 33zM245 746h-35l33 52h40l33 -52h-37l-16 23z" />
    <glyph glyph-name="Udieresis" unicode="&#xdc;" 
d="M150 22q-56 33 -88.5 89t-32.5 122v468h37l2 -453q0 -60 27 -111t73.5 -80.5t101.5 -29.5t101 29.5t73.5 80.5t27.5 111l3 453h39v-468q0 -65 -33 -121.5t-88.5 -89.5t-120.5 -33q-66 0 -122 33zM241 750h-26v48h26v-48zM287 749h-27v49h27v-49z" />
    <glyph glyph-name="Yacute" unicode="&#xdd;" 
d="M284 749h-24l14 49h35zM254 289q-62 4 -114 38t-81.5 87.5t-29.5 115.5v170h37l3 -168q0 -58 26 -104.5t72 -73t103 -26.5q56 0 101.5 26t71.5 72t28 106l5 168h38v-170q0 -61 -29.5 -114t-80 -87.5t-111.5 -39.5v-289h-39v289z" />
    <glyph glyph-name="germandbls" unicode="&#xdf;" horiz-adv-x="501" 
d="M207 -6v34h69q43 0 79 20t56.5 54.5t20.5 76.5t-20.5 77t-56.5 55t-79 20h-91v40h91q43 0 79 20t56.5 54.5t20.5 76.5q0 43 -21 80t-57 59t-78 22l-108 -1q-43 0 -71.5 -28.5t-28.5 -71.5v-578h-39v586q0 56 35.5 91.5t90.5 35.5h132q49 0 91.5 -27t68 -71.5t25.5 -96.5
q0 -48 -23 -89.5t-63 -67.5v-28q41 -26 63.5 -67.5t22.5 -90.5q0 -50 -25 -92.5t-67.5 -67.5t-92.5 -25h-80z" />
    <glyph glyph-name="agrave" unicode="&#xe0;" horiz-adv-x="550" 
d="M318 643h-24l-26 49h36zM61 374.5q32 59.5 88.5 93.5t125.5 34q67 0 121.5 -32.5t86.5 -88.5v119h38v-499h-22l-16 99q-40 -56 -90.5 -82.5t-117.5 -27.5q-69 0 -125.5 33t-88.5 90.5t-32 128.5q0 73 32 132.5zM96.5 134q26.5 -48 73.5 -75.5t105 -27.5t105.5 27.5
t75 75.5t27.5 108q0 63 -27 113.5t-74.5 79t-106.5 28.5q-58 0 -104.5 -29t-73.5 -79.5t-27 -112.5q0 -60 26.5 -108z" />
    <glyph glyph-name="aacute" unicode="&#xe1;" horiz-adv-x="550" 
d="M278 643h-24l14 49h35zM61 374.5q32 59.5 88.5 93.5t125.5 34q67 0 121.5 -32.5t86.5 -88.5v119h38v-499h-22l-16 99q-40 -56 -90.5 -82.5t-117.5 -27.5q-69 0 -125.5 33t-88.5 90.5t-32 128.5q0 73 32 132.5zM96.5 134q26.5 -48 73.5 -75.5t105 -27.5t105.5 27.5
t75 75.5t27.5 108q0 63 -27 113.5t-74.5 79t-106.5 28.5q-58 0 -104.5 -29t-73.5 -79.5t-27 -112.5q0 -60 26.5 -108z" />
    <glyph glyph-name="acircumflex" unicode="&#xe2;" 
d="M29 468q0 65 32.5 121t88.5 88.5t122 32.5q65 0 120.5 -33t88.5 -88.5t33 -120.5v-468h-36v290h-413v-290h-36v468zM65 328h411v130q0 59 -27.5 109t-75 79t-103.5 29t-103 -29.5t-74.5 -79t-27.5 -108.5v-130zM248 746h-35l33 52h40l33 -52h-37l-16 23z" />
    <glyph glyph-name="atilde" unicode="&#xe3;" 
d="M305 790l-51 -27l-30 35l26 12l17 -23l48 23l30 -38l-16 -10zM29 468q0 65 32.5 121t88.5 88.5t122 32.5q65 0 120.5 -33t88.5 -88.5t33 -120.5v-468h-36v290h-413v-290h-36v468zM65 328h411v130q0 59 -27.5 109t-75 79t-103.5 29t-103 -29.5t-74.5 -79t-27.5 -108.5
v-130z" />
    <glyph glyph-name="adieresis" unicode="&#xe4;" 
d="M29 468q0 65 32.5 121t88.5 88.5t122 32.5q65 0 120.5 -33t88.5 -88.5t33 -120.5v-468h-36v290h-413v-290h-36v468zM65 328h411v130q0 59 -27.5 109t-75 79t-103.5 29t-103 -29.5t-74.5 -79t-27.5 -108.5v-130zM325 750h-26v48h26v-48zM371 749h-27v49h27v-49z" />
    <glyph glyph-name="aring" unicode="&#xe5;" horiz-adv-x="550" 
d="M298 657q9 9 9 21q0 14 -8.5 23t-21.5 9t-21.5 -9t-8.5 -23q0 -12 8.5 -21t21.5 -9q12 0 21 9zM257.5 658.5q-7.5 8.5 -7.5 20.5q0 13 7.5 21t19.5 8t20 -8t8 -21q0 -12 -8.5 -20.5t-19.5 -8.5q-12 0 -19.5 8.5zM61 374.5q32 59.5 88.5 93.5t125.5 34q67 0 121.5 -32.5
t86.5 -88.5v119h38v-499h-22l-16 99q-40 -56 -90.5 -82.5t-117.5 -27.5q-69 0 -125.5 33t-88.5 90.5t-32 128.5q0 73 32 132.5zM96.5 134q26.5 -48 73.5 -75.5t105 -27.5t105.5 27.5t75 75.5t27.5 108q0 63 -27 113.5t-74.5 79t-106.5 28.5q-58 0 -104.5 -29t-73.5 -79.5
t-27 -112.5q0 -60 26.5 -108z" />
    <glyph glyph-name="ae" unicode="&#xe6;" horiz-adv-x="981" 
d="M807 43.5q36 13.5 64 37.5l27 -29q-34 -31 -76 -47t-88 -16q-69 0 -125 33.5t-88 90.5v-112h-22l-16 99q-40 -56 -90.5 -82.5t-117.5 -27.5q-69 0 -125.5 33t-88.5 90.5t-32 128.5q0 73 32 132.5t88.5 93.5t125.5 34q67 0 121.5 -32.5t86.5 -88.5v119h38v-123
q32 58 88 92t125 34q150 0 218 -147l-390 -231q27 -45 72.5 -70t99.5 -25q37 0 73 13.5zM900 367q-27 47 -69 72t-97 25q-58 0 -104.5 -29t-73.5 -79.5t-27 -112.5q0 -45 15 -80zM380.5 58.5q47.5 27.5 75 75.5t27.5 108q0 63 -27 113.5t-74.5 79t-106.5 28.5
q-58 0 -104.5 -29t-73.5 -79.5t-27 -112.5q0 -60 26.5 -108t73.5 -75.5t105 -27.5t105.5 27.5z" />
    <glyph glyph-name="ccedilla" unicode="&#xe7;" horiz-adv-x="485" 
d="M62 376q33 61 90 95.5t127 34.5q51 0 96.5 -19.5t80.5 -56.5l-31 -24q-28 28 -65.5 43.5t-80.5 15.5q-58 0 -105.5 -29.5t-75 -80.5t-27.5 -114q0 -61 27 -110t74.5 -77.5t106.5 -28.5q39 0 75 13t64 38l28 -29q-65 -60 -157 -65v-25q34 -9 50.5 -26.5t16.5 -52.5
q0 -39 -27 -58.5t-63 -19.5q-30 0 -55.5 19t-36.5 48l24 16q10 -27 29.5 -39.5t38.5 -12.5q20 0 40 11t20 34q0 30 -20.5 42t-50.5 11v54q-64 6 -115.5 41t-81 92t-29.5 125q0 74 33 135z" />
    <glyph glyph-name="egrave" unicode="&#xe8;" horiz-adv-x="515" 
d="M485 0h-456v701h456v-38h-418l1 -335h243v-38h-243l-1 -252h418v-38zM296 749h-24l-26 49h36z" />
    <glyph glyph-name="eacute" unicode="&#xe9;" horiz-adv-x="515" 
d="M485 0h-456v701h456v-38h-418l1 -335h243v-38h-243l-1 -252h418v-38zM260 749h-24l14 49h35z" />
    <glyph glyph-name="ecircumflex" unicode="&#xea;" horiz-adv-x="515" 
d="M485 0h-456v701h456v-38h-418l1 -335h243v-38h-243l-1 -252h418v-38zM251 746h-35l33 52h40l33 -52h-37l-16 23z" />
    <glyph glyph-name="edieresis" unicode="&#xeb;" horiz-adv-x="515" 
d="M485 0h-456v701h456v-38h-418l1 -335h243v-38h-243l-1 -252h418v-38zM216 750h-26v48h26v-48zM262 749h-27v49h27v-49z" />
    <glyph glyph-name="igrave" unicode="&#xec;" horiz-adv-x="136" 
d="M107 0h-38v701h38v-701zM87 749h-24l-26 49h36z" />
    <glyph glyph-name="iacute" unicode="&#xed;" horiz-adv-x="132" 
d="M103 798l-25 -49h-24l13 49h36zM71 701v-701h-37v701h37z" />
    <glyph glyph-name="icircumflex" unicode="&#xee;" horiz-adv-x="576" 
d="M70 0h-41l2 700h45l428 -642l-4 642h46v-700h-61l-415 625v-625zM255 746h-35l33 52h40l33 -52h-37l-16 23z" />
    <glyph glyph-name="idieresis" unicode="&#xef;" horiz-adv-x="145" 
d="M111 0h-38v701h38v-701zM63 750h-26v48h26v-48zM109 749h-27v49h27v-49z" />
    <glyph glyph-name="ntilde" unicode="&#xf1;" horiz-adv-x="576" 
d="M70 0h-41l2 700h45l428 -642l-4 642h46v-700h-61l-415 625v-625zM281 765l-29 -21l-33 45l25 11l14 -20l28 21l30 -38l-21 -15z" />
    <glyph glyph-name="ograve" unicode="&#xf2;" horiz-adv-x="759" 
d="M378 749h-24l-26 49h36zM202.5 40q-80.5 48 -127 130t-46.5 181t46.5 181t127 130t176.5 48t176.5 -48t127 -130.5t46.5 -180.5q0 -99 -46.5 -181t-127 -130t-176.5 -48t-176.5 48zM536 74q71 43 113 116t42 161q0 87 -42 160.5t-113 116.5t-156 43q-86 0 -157 -43
t-112.5 -116t-41.5 -161t41.5 -161.5t112.5 -116t157 -42.5q85 0 156 43z" />
    <glyph glyph-name="oacute" unicode="&#xf3;" horiz-adv-x="759" 
d="M403 749h-24l14 49h35zM202.5 40q-80.5 48 -127 130t-46.5 181t46.5 181t127 130t176.5 48t176.5 -48t127 -130.5t46.5 -180.5q0 -99 -46.5 -181t-127 -130t-176.5 -48t-176.5 48zM536 74q71 43 113 116t42 161q0 87 -42 160.5t-113 116.5t-156 43q-86 0 -157 -43
t-112.5 -116t-41.5 -161t41.5 -161.5t112.5 -116t157 -42.5q85 0 156 43z" />
    <glyph glyph-name="ocircumflex" unicode="&#xf4;" horiz-adv-x="759" 
d="M202.5 40q-80.5 48 -127 130t-46.5 181t46.5 181t127 130t176.5 48t176.5 -48t127 -130.5t46.5 -180.5q0 -99 -46.5 -181t-127 -130t-176.5 -48t-176.5 48zM536 74q71 43 113 116t42 161q0 87 -42 160.5t-113 116.5t-156 43q-86 0 -157 -43t-112.5 -116t-41.5 -161
t41.5 -161.5t112.5 -116t157 -42.5q85 0 156 43zM351 746h-35l33 52h40l33 -52h-37l-16 23z" />
    <glyph glyph-name="otilde" unicode="&#xf5;" horiz-adv-x="759" 
d="M202.5 40q-80.5 48 -127 130t-46.5 181t46.5 181t127 130t176.5 48t176.5 -48t127 -130.5t46.5 -180.5q0 -99 -46.5 -181t-127 -130t-176.5 -48t-176.5 48zM536 74q71 43 113 116t42 161q0 87 -42 160.5t-113 116.5t-156 43q-86 0 -157 -43t-112.5 -116t-41.5 -161
t41.5 -161.5t112.5 -116t157 -42.5q85 0 156 43zM393 765l-29 -21l-33 45l25 11l14 -20l28 21l30 -38l-21 -15z" />
    <glyph glyph-name="odieresis" unicode="&#xf6;" horiz-adv-x="759" 
d="M202.5 40q-80.5 48 -127 130t-46.5 181t46.5 181t127 130t176.5 48t176.5 -48t127 -130.5t46.5 -180.5q0 -99 -46.5 -181t-127 -130t-176.5 -48t-176.5 48zM536 74q71 43 113 116t42 161q0 87 -42 160.5t-113 116.5t-156 43q-86 0 -157 -43t-112.5 -116t-41.5 -161
t41.5 -161.5t112.5 -116t157 -42.5q85 0 156 43zM354 750h-26v48h26v-48zM400 749h-27v49h27v-49z" />
    <glyph glyph-name="oslash" unicode="&#xf8;" horiz-adv-x="550" 
d="M371 577q68 -29 109 -94.5t41 -150.5q0 -71 -32.5 -129.5t-89 -93t-124.5 -34.5q-13 0 -19 1l-18 -80l-38 8l18 78q-55 13 -98 49t-67 88t-24 113q0 76 32 136.5t88.5 94t125.5 33.5q32 0 59 -7l27 116l38 -8zM113.5 196q43.5 -58 113.5 -75l98 429q-24 6 -50 6
q-58 0 -105 -28.5t-73.5 -79.5t-26.5 -116q0 -78 43.5 -136zM380.5 144.5q47.5 28.5 75 78t27.5 109.5q0 73 -32.5 127t-88.5 79l-96 -422h9q58 0 105.5 28.5z" />
    <glyph glyph-name="ugrave" unicode="&#xf9;" 
d="M315 749h-24l-26 49h36zM150 22q-56 33 -88.5 89t-32.5 122v468h37l2 -453q0 -60 27 -111t73.5 -80.5t101.5 -29.5t101 29.5t73.5 80.5t27.5 111l3 453h39v-468q0 -65 -33 -121.5t-88.5 -89.5t-120.5 -33q-66 0 -122 33z" />
    <glyph glyph-name="uacute" unicode="&#xfa;" 
d="M339 749h-24l14 49h35zM150 22q-56 33 -88.5 89t-32.5 122v468h37l2 -453q0 -60 27 -111t73.5 -80.5t101.5 -29.5t101 29.5t73.5 80.5t27.5 111l3 453h39v-468q0 -65 -33 -121.5t-88.5 -89.5t-120.5 -33q-66 0 -122 33z" />
    <glyph glyph-name="ucircumflex" unicode="&#xfb;" 
d="M150 22q-56 33 -88.5 89t-32.5 122v468h37l2 -453q0 -60 27 -111t73.5 -80.5t101.5 -29.5t101 29.5t73.5 80.5t27.5 111l3 453h39v-468q0 -65 -33 -121.5t-88.5 -89.5t-120.5 -33q-66 0 -122 33zM234 746h-35l33 52h40l33 -52h-37l-16 23z" />
    <glyph glyph-name="udieresis" unicode="&#xfc;" 
d="M150 22q-56 33 -88.5 89t-32.5 122v468h37l2 -453q0 -60 27 -111t73.5 -80.5t101.5 -29.5t101 29.5t73.5 80.5t27.5 111l3 453h39v-468q0 -65 -33 -121.5t-88.5 -89.5t-120.5 -33q-66 0 -122 33zM214 750h-26v48h26v-48zM260 749h-27v49h27v-49z" />
    <glyph glyph-name="yacute" unicode="&#xfd;" 
d="M254 289q-62 4 -114 38t-81.5 87.5t-29.5 115.5v170h37l3 -168q0 -58 26 -104.5t72 -73t103 -26.5q56 0 101.5 26t71.5 72t28 106l5 168h38v-170q0 -61 -29.5 -114t-80 -87.5t-111.5 -39.5v-289h-39v289zM276 749h-24l14 49h35z" />
    <glyph glyph-name="ydieresis" unicode="&#xff;" 
d="M254 289q-62 4 -114 38t-81.5 87.5t-29.5 115.5v170h37l3 -168q0 -58 26 -104.5t72 -73t103 -26.5q56 0 101.5 26t71.5 72t28 106l5 168h38v-170q0 -61 -29.5 -114t-80 -87.5t-111.5 -39.5v-289h-39v289zM246 750h-26v48h26v-48zM292 749h-27v49h27v-49z" />
    <glyph glyph-name="OE" unicode="&#x152;" horiz-adv-x="1187" 
d="M1157 701v-38h-418l1 -335h243v-38h-243l-1 -252h418v-38h-456v208q-40 -97 -127 -156.5t-195 -59.5q-96 0 -176.5 48t-127 130t-46.5 181t46.5 181t127 130t176.5 48q108 0 195 -59.5t127 -157.5v208h456zM536 74q71 43 113 116t42 161q0 87 -42 160.5t-113 116.5
t-156 43q-86 0 -157 -43t-112.5 -116t-41.5 -161t41.5 -161.5t112.5 -116t157 -42.5q85 0 156 43z" />
    <glyph glyph-name="oe" unicode="&#x153;" horiz-adv-x="980" 
d="M806 43.5q36 13.5 64 37.5l27 -29q-34 -31 -76 -47t-88 -16q-79 0 -141 44t-89 117q-27 -72 -88.5 -116t-139.5 -44q-68 0 -124.5 34.5t-89 93t-32.5 129.5q0 76 32 136.5t88.5 94t125.5 33.5q80 0 142 -45.5t88 -120.5q27 72 88.5 115t139.5 43q151 0 218 -147
l-390 -231q27 -45 72.5 -70t99.5 -25q37 0 73 13.5zM380.5 59.5q47.5 28.5 75 78t27.5 109.5q0 66 -27 117t-74 79t-107 28q-58 0 -105 -28.5t-73.5 -79.5t-26.5 -116q0 -60 26.5 -109.5t73.5 -78t105 -28.5t105.5 28.5zM899 367q-27 47 -69 72t-97 25q-58 0 -104.5 -29
t-73.5 -79.5t-27 -112.5q0 -45 15 -80z" />
    <glyph glyph-name="Scaron" unicode="&#x160;" horiz-adv-x="510" 
d="M248 761l-33 52h35l18 -23l16 23h37l-33 -52h-40zM166 -11q-49 0 -86.5 34t-42.5 83h39q5 -33 31 -56t59 -23h173q43 0 72 37t29 93q0 55 -29.5 94t-71.5 39h-147q-46 0 -83 27.5t-58.5 76t-21.5 108.5q0 54 22.5 102.5t60.5 77.5t80 29h147q50 0 87.5 -33.5t41.5 -82.5
h-38q-5 33 -31 55.5t-60 22.5h-147q-32 0 -60.5 -23.5t-45.5 -63t-17 -84.5q0 -78 34 -126.5t89 -48.5h147q36 0 69 -23.5t53 -63t20 -83.5q0 -46 -19 -84.5t-52 -61t-71 -22.5h-173z" />
    <glyph glyph-name="scaron" unicode="&#x161;" horiz-adv-x="510" 
d="M235 761l-33 52h35l18 -23l16 23h37l-33 -52h-40zM166 -11q-49 0 -86.5 34t-42.5 83h39q5 -33 31 -56t59 -23h173q43 0 72 37t29 93q0 55 -29.5 94t-71.5 39h-147q-46 0 -83 27.5t-58.5 76t-21.5 108.5q0 54 22.5 102.5t60.5 77.5t80 29h147q50 0 87.5 -33.5t41.5 -82.5
h-38q-5 33 -31 55.5t-60 22.5h-147q-32 0 -60.5 -23.5t-45.5 -63t-17 -84.5q0 -78 34 -126.5t89 -48.5h147q36 0 69 -23.5t53 -63t20 -83.5q0 -46 -19 -84.5t-52 -61t-71 -22.5h-173z" />
    <glyph glyph-name="Ydieresis" unicode="&#x178;" 
d="M254 289q-62 4 -114 38t-81.5 87.5t-29.5 115.5v170h37l3 -168q0 -58 26 -104.5t72 -73t103 -26.5q56 0 101.5 26t71.5 72t28 106l5 168h38v-170q0 -61 -29.5 -114t-80 -87.5t-111.5 -39.5v-289h-39v289zM246 750h-26v48h26v-48zM292 749h-27v49h27v-49z" />
    <glyph glyph-name="zcaron" unicode="&#x17e;" horiz-adv-x="531" 
d="M221 711l-33 52h35l18 -23l16 23h37l-33 -52h-40zM479 -1h-448l-2 39l414 422h-408v40h467v-40l-410 -420h387v-41z" />
    <glyph glyph-name="endash" unicode="&#x2013;" horiz-adv-x="409" 
d="M380 291h-351v37h351v-37z" />
    <glyph glyph-name="emdash" unicode="&#x2014;" horiz-adv-x="507" 
d="M478 289h-449v40h449v-40z" />
    <glyph glyph-name="quoteleft" unicode="&#x2018;" horiz-adv-x="120" 
d="M91 537l-22 -10l-40 177l37 7z" />
    <glyph glyph-name="quoteright" unicode="&#x2019;" horiz-adv-x="120" 
d="M91 704l-39 -177l-23 10l26 174z" />
    <glyph glyph-name="quotesinglbase" unicode="&#x201a;" horiz-adv-x="120" 
d="M91 62l-39 -177l-23 10l26 174z" />
    <glyph glyph-name="quotedblleft" unicode="&#x201c;" horiz-adv-x="229" 
d="M91 537l-22 -10l-40 177l37 7zM200 537l-22 -10l-40 177l37 7z" />
    <glyph glyph-name="quotedblright" unicode="&#x201d;" horiz-adv-x="229" 
d="M91 704l-39 -177l-23 10l26 174zM200 704l-39 -177l-23 10l26 174z" />
    <glyph glyph-name="quotedblbase" unicode="&#x201e;" horiz-adv-x="229" 
d="M91 64l-39 -177l-23 10l26 174zM200 64l-39 -177l-23 10l26 174z" />
    <glyph glyph-name="dagger" unicode="&#x2020;" horiz-adv-x="422" 
d="M222 -7h-41v296h-152v40h152v267h41v-267h171v-40h-171v-296z" />
    <glyph glyph-name="bullet" unicode="&#x2022;" horiz-adv-x="157" 
d="M43 229q-14 14 -14 34q0 22 14 36.5t35 14.5t35.5 -14.5t14.5 -36.5q0 -20 -14.5 -34t-35.5 -14t-35 14z" />
    <glyph glyph-name="ellipsis" unicode="&#x2026;" horiz-adv-x="360" 
d="M37 8.5q-8 8.5 -8 19.5q0 12 8 20.5t20 8.5q13 0 21 -8.5t8 -20.5q0 -11 -8.5 -19.5t-20.5 -8.5t-20 8.5zM158 8.5q-8 8.5 -8 19.5q0 12 8 20.5t20 8.5q13 0 21 -8.5t8 -20.5q0 -11 -8.5 -19.5t-20.5 -8.5t-20 8.5zM281 9.5q-8 8.5 -8 19.5q0 12 8 20.5t20 8.5
q13 0 21 -8.5t8 -20.5q0 -11 -8.5 -19.5t-20.5 -8.5t-20 8.5z" />
    <glyph glyph-name="perthousand" unicode="&#x2030;" horiz-adv-x="1126" 
d="M104 420q-35 21 -55 56.5t-20 78.5t20 78.5t55 56.5t76 21t76 -21t55.5 -56.5t20.5 -78.5t-20.5 -78.5t-55.5 -56.5t-76 -21t-76 21zM457 700l-123 -701h-37l122 701h38zM265.5 469.5q34.5 35.5 34.5 85.5t-34.5 86t-83.5 36t-83.5 -35.5t-34.5 -86.5t34 -86t84 -35
q49 0 83.5 35.5zM502.5 10q-34.5 21 -54.5 57t-20 78q0 43 20 79t54.5 57t75.5 21q42 0 77 -21t55 -57t20 -79q0 -42 -20.5 -78t-55 -57t-76.5 -21q-41 0 -75.5 21zM869 10q-35 21 -55 57t-20 78q0 43 20 79t55 57t76 21t76 -21t55.5 -57t20.5 -79q0 -42 -20.5 -78
t-55.5 -57t-76 -21t-76 21zM662.5 60q33.5 35 33.5 85q0 51 -33.5 86.5t-82.5 35.5t-83.5 -36t-34.5 -86q0 -51 34 -85.5t84 -34.5q49 0 82.5 35zM1029 60q33 35 33 85q0 51 -33 86.5t-82 35.5t-83 -35.5t-34 -86.5t33.5 -85.5t83.5 -34.5q49 0 82 35z" />
    <glyph glyph-name="guilsinglleft" unicode="&#x2039;" horiz-adv-x="246" 
d="M212 137l-40 -34l-143 161l150 159l38 -38l-118 -121z" />
    <glyph glyph-name="guilsinglright" unicode="&#x203a;" horiz-adv-x="246" 
d="M217 264l-143 -161l-40 34l113 127l-118 121l38 38z" />
    <glyph glyph-name="Euro" unicode="&#x20ac;" horiz-adv-x="776" 
d="M608 52.5q54 21.5 97 60.5l26 -29q-49 -45 -109 -68.5t-126 -23.5q-108 0 -194.5 59t-126.5 156h-146v37h132q-14 48 -15 100h-117v37h118q7 92 55.5 167.5t125.5 118.5t168 43q72 0 137 -28t114 -80l-32 -24q-43 45 -99.5 69t-118.5 24q-81 0 -149 -38t-111 -104.5
t-50 -147.5h193v-37h-194q1 -52 17 -100h177v-37h-162q39 -80 113.5 -128t165.5 -48q57 0 111 21.5z" />
    <glyph glyph-name="trademark" unicode="&#x2122;" horiz-adv-x="594" 
d="M145 443h-16v262h-99v15h226v-15h-111v-262zM290 443h-16v277h21l124 -248l122 248h23v-277h-18v249l-121 -249h-12l-123 248v-248z" />
    <glyph glyph-name="uni0308.case" horiz-adv-x="0" 
d="M-75 750h-26v48h26v-48zM-29 749h-27v49h27v-49z" />
    <glyph glyph-name="gravecomb.case" horiz-adv-x="0" 
d="M-29 749h-24l-26 49h36z" />
    <glyph glyph-name="acutecomb.case" horiz-adv-x="0" 
d="M-55 749h-24l14 49h35z" />
    <glyph glyph-name="uni0302.case" horiz-adv-x="0" 
d="M-100 746h-35l33 52h40l33 -52h-37l-16 23z" />
    <glyph glyph-name="tildecomb.case" horiz-adv-x="0" 
d="M-64 765l-29 -21l-33 45l25 11l14 -20l28 21l30 -38l-21 -15z" />
    <glyph glyph-name="T.small" horiz-adv-x="395" 
d="M329 0h-39v663h-252v38h574v-38h-283v-663z" />
    <glyph glyph-name="r.small" horiz-adv-x="188" 
d="M29 0v500h39v-89q26 41 66.5 65t88.5 24v-36q-43 -1 -78.5 -25t-56 -63.5t-20.5 -83.5v-292h-39z" />
    <glyph glyph-name="foxtype" horiz-adv-x="288" 
d="M254 -1h-228v701h228v-701zM79 636v-64l104 1v63h-18v-39h-27v32h-17v-32h-25v37zM79 482l104 1v24h-35v11q0 20 -10 31t-25 11q-19 0 -26.5 -11t-7.5 -33v-34zM96 516q0 18 17 18q18 0 18 -18v-9h-35v9zM79 409v-105h19v27h85v25l-85 -1v37l46 24h39v25h-39l-65 33v-26
l46 -19zM113 259l-34 -15l1 -27l48 27l55 -29v26l-39 18l39 18v26l-56 -30l-48 28v-26zM91.5 132q14.5 -12 40.5 -12q27 0 40.5 12t13.5 34q0 47 -55 47q-25 0 -39.5 -12t-14.5 -35q0 -22 14.5 -34zM131 188q37 0 37 -22q0 -11 -10 -16t-26 -5q-37 0 -37 21q0 22 36 22z
M80 116v-62h104v25h-42v30h-17v-30h-28v35z" />
    </font>
</defs>
</svg>
