<?xml version="1.0" standalone="no"?>
<!DOCTYPE svg PUBLIC "-//W3C//DTD SVG 1.1//EN" "http://www.w3.org/Graphics/SVG/1.1/DTD/svg11.dtd" >
<svg xmlns="http://www.w3.org/2000/svg" xmlns:xlink="http://www.w3.org/1999/xlink" version="1.1">
<metadata>
Created by FontForge 20170731 at Sat Jul 31 05:56:08 2021
 By Aleksey,,,
Copyright (c) 2021 by Foxtype. All rights reserved.
</metadata>
<defs>
<font id="GaroldLogoTypeface" horiz-adv-x="546" >
  <font-face 
    font-family="Garold Logo Typeface"
    font-weight="400"
    font-stretch="normal"
    units-per-em="1000"
    panose-1="0 0 5 0 0 0 0 0 0 0"
    ascent="800"
    descent="-200"
    x-height="500"
    cap-height="701"
    bbox="-117 -201 1156 823"
    underline-thickness="50"
    underline-position="-150"
    unicode-range="U+0020-2122"
  />
<missing-glyph horiz-adv-x="1526" 
 />
    <glyph glyph-name=".notdef" horiz-adv-x="1526" 
 />
    <glyph glyph-name=".null" horiz-adv-x="830" 
 />
    <glyph glyph-name="nonmarkingreturn" horiz-adv-x="2094" 
 />
    <glyph glyph-name="space" unicode=" " horiz-adv-x="466" 
 />
    <glyph glyph-name="exclam" unicode="!" horiz-adv-x="111" 
d="M59 213h-6l-9 487h25zM39 -3.5q-6 6.5 -6 15.5q0 10 6 16.5t16 6.5t16.5 -6.5t6.5 -16.5q0 -9 -6.5 -15.5t-16.5 -6.5t-16 6.5z" />
    <glyph glyph-name="quotedbl" unicode="&#x22;" horiz-adv-x="213" 
d="M59 530h-7l-8 170h24zM171 530h-7l-8 170h24z" />
    <glyph glyph-name="numbersign" unicode="#" horiz-adv-x="586" 
d="M182 200l-35 -200h-26l35 200h-123v27h128l40 228h-168v26h172l38 219h25l-37 -219h165l37 219h26l-37 -219h131v-26h-135l-41 -228h176v-27h-180l-35 -200h-27l36 200h-165zM227 455l-41 -228h165l41 228h-165z" />
    <glyph glyph-name="dollar" unicode="$" horiz-adv-x="501" 
d="M234 0v96h-74q-46 0 -82 30.5t-44 75.5h27q8 -34 35.5 -57t63.5 -23h74v214h-74q-34 0 -63 18.5t-46.5 50t-17.5 68.5q0 55 37 93.5t90 38.5h74v95h25v-95h82q46 0 81.5 -30t43.5 -75h-26q-7 34 -35 56.5t-64 22.5h-82v-218h82q34 0 63.5 -18.5t46.5 -49.5t17 -68
q0 -56 -36 -92.5t-91 -36.5h-82v-96h-25zM234 361v218h-74q-43 0 -71 -30t-28 -76q0 -48 28 -80t71 -32h74zM341 122q44 0 72 28.5t28 74.5q0 48 -28.5 79.5t-71.5 31.5h-82v-214h82z" />
    <glyph glyph-name="percent" unicode="%" horiz-adv-x="810" 
d="M106 425.5q-34 20.5 -53.5 55.5t-19.5 76q0 42 19.5 77t53.5 55.5t74 20.5q41 0 75 -20.5t53.5 -55.5t19.5 -77q0 -41 -20 -76t-54 -55.5t-74 -20.5t-74 20.5zM478 700l-123 -700h-25l122 700h26zM269 467.5q36 36.5 36 89.5t-36 90t-88 37t-88 -37t-36 -90
q0 -54 35.5 -90t88.5 -36q52 0 88 36.5zM555 10.5q-34 20.5 -53.5 55.5t-19.5 76q0 42 19.5 77t53.5 55.5t74 20.5q41 0 75 -20.5t53.5 -55.5t19.5 -77q0 -41 -20 -76t-54 -55.5t-74 -20.5t-74 20.5zM718 52.5q36 36.5 36 89.5t-36 90t-88 37t-88 -37t-36 -90
q0 -54 35.5 -90t88.5 -36q52 0 88 36.5z" />
    <glyph glyph-name="ampersand" unicode="&#x26;" horiz-adv-x="621" 
d="M211 1q-49 0 -89.5 24.5t-64.5 66t-24 90.5q0 59 31.5 102t89.5 68q-56 23 -88.5 66.5t-32.5 101.5q0 50 24 94t65 70t89 26h155v-21l-145 1q-44 0 -81.5 -22.5t-59.5 -61.5t-22 -84q0 -44 21.5 -80.5t59 -58t82.5 -21.5h270v203h23v-203h74v-22h-74l-1 -220
q0 -52 -33.5 -85.5t-85.5 -33.5h-183zM383 21q47 0 77.5 29t30.5 74v216h-270q-45 0 -82.5 -21.5t-59 -58.5t-21.5 -81t21.5 -80t59 -57t82.5 -21h162z" />
    <glyph glyph-name="quotesingle" unicode="'" horiz-adv-x="90" 
d="M48 531h-7l-8 170h24z" />
    <glyph glyph-name="parenleft" unicode="(" horiz-adv-x="181" 
d="M148 -72q-48 6 -76 38t-28 81v533q0 49 28.5 81t75.5 38v-25q-80 -17 -80 -100v-519q0 -47 20.5 -70.5t59.5 -31.5v-25z" />
    <glyph glyph-name="parenright" unicode=")" horiz-adv-x="159" 
d="M22 -47q39 8 59.5 31.5t20.5 70.5v519q0 83 -80 100v25q47 -6 75.5 -38t28.5 -81v-533q0 -49 -28 -81t-76 -38v25z" />
    <glyph glyph-name="asterisk" unicode="*" horiz-adv-x="291" 
d="M138 594h-105v4h99l-69 69l3 3l70 -70v100h5v-103l75 74l3 -3l-70 -70h109v-4h-114l82 -83l-3 -4l-82 83v-114h-5v109l-77 -77l-4 3z" />
    <glyph glyph-name="plus" unicode="+" horiz-adv-x="416" 
d="M212 122h-27v174h-152v26h152v151h27v-151h171v-26h-171v-174z" />
    <glyph glyph-name="comma" unicode="," horiz-adv-x="114" 
d="M81 46l-37 -165l-11 5l24 165z" />
    <glyph glyph-name="hyphen" unicode="-" horiz-adv-x="416" 
d="M383 296h-350v26h350v-26z" />
    <glyph glyph-name="period" unicode="." horiz-adv-x="111" 
d="M39 7.5q-6 6.5 -6 15.5q0 10 6 16.5t16 6.5t16.5 -6.5t6.5 -16.5q0 -9 -6.5 -15.5t-16.5 -6.5t-16 6.5z" />
    <glyph glyph-name="slash" unicode="/" horiz-adv-x="213" 
d="M180 692l-122 -698l-25 4l122 699z" />
    <glyph glyph-name="zero" unicode="0" horiz-adv-x="765" 
d="M206 40.5q-80 47.5 -126.5 130t-46.5 180.5q0 99 46.5 181.5t126.5 130t176 47.5t176.5 -48t127 -130.5t46.5 -180.5t-46.5 -180.5t-127 -130t-176.5 -47.5t-176 47.5zM451 675q-30 8 -68 8q-89 0 -163 -44.5t-117 -120.5t-43 -167q0 -82 35.5 -152.5t98.5 -117
t143 -58.5zM362 21l21 -1q88 0 162 44.5t117.5 120.5t43.5 166q0 72 -28.5 137t-80.5 112.5t-120 68.5z" />
    <glyph glyph-name="one" unicode="1" horiz-adv-x="144" 
d="M111 1h-25v674h-53v26h78v-700z" />
    <glyph glyph-name="two" unicode="2" horiz-adv-x="502" 
d="M34 197q0 80 36 124.5t101 44.5h160q52 0 81.5 43.5t29.5 120.5q0 74 -29 115t-82 41h-164q-36 0 -63 -23t-35 -58h-27q8 45 43.5 75.5t81.5 30.5h164q63 0 100.5 -48.5t37.5 -132.5q0 -56 -17.5 -99t-49 -67t-71.5 -24h-160q-55 0 -82 -35t-27 -108v-169h337v-27h-366z
" />
    <glyph glyph-name="three" unicode="3" horiz-adv-x="431" 
d="M41 1v20h169q45 0 82.5 21t59 57t21.5 80t-21.5 80.5t-59 57.5t-82.5 21h-84v26h84q45 0 82.5 21t59 57t21.5 80q0 45 -22 84t-60 61.5t-82 22.5l-176 -1v21h187q47 0 88 -26t65.5 -69t24.5 -93q0 -64 -34.5 -109t-91.5 -61q59 -20 92.5 -65t33.5 -108q0 -48 -24 -89
t-65 -65t-89 -24h-179z" />
    <glyph glyph-name="four" unicode="4" horiz-adv-x="473" 
d="M299 1h-27v138h-239l62 562h25l-60 -537h212v158h27v-158h141v-25h-141v-138z" />
    <glyph glyph-name="five" unicode="5" horiz-adv-x="502" 
d="M167 -10q-46 0 -81.5 30.5t-43.5 75.5h27q8 -34 35.5 -57t62.5 -23h164q53 0 82 41t29 115q0 77 -29.5 120.5t-81.5 43.5h-160q-65 0 -101 44t-36 125l-1 196h366v-27h-337v-169q0 -73 27 -108.5t82 -35.5h160q61 0 99.5 -52.5t38.5 -136.5t-37.5 -133t-100.5 -49h-164z
" />
    <glyph glyph-name="six" unicode="6" horiz-adv-x="553" 
d="M33 460q0 70 32 127.5t87.5 90.5t123.5 33q52 0 98 -19.5t81 -56.5l-22 -20q-29 32 -70 50t-87 18q-61 0 -110.5 -29t-78 -80t-28.5 -114v-89q28 62 87 101t130 39q68 0 124 -33t88 -90.5t32 -127.5q0 -77 -31.5 -138.5t-87 -96.5t-125.5 -35q-69 0 -124.5 35t-87 97
t-31.5 138v200zM86.5 135q27.5 -55 77 -86t112.5 -31q62 0 111 31.5t77 86.5t28 124q0 63 -28.5 113.5t-77.5 79.5t-110 29t-110.5 -29t-78 -80t-28.5 -113q0 -70 27.5 -125z" />
    <glyph glyph-name="seven" unicode="7" horiz-adv-x="419" 
d="M306 1h-25l78 674h-326v26h353z" />
    <glyph glyph-name="eight" unicode="8" horiz-adv-x="534" 
d="M207 -10q-48 0 -88 25.5t-63 69t-23 96.5q0 60 33.5 106t87.5 65q-54 20 -87.5 65t-33.5 103q0 49 23 93t61 70.5t82 26.5h136q43 0 81 -26.5t61.5 -69.5t23.5 -92q0 -64 -36 -110.5t-90 -59.5q54 -15 90 -63t36 -110q0 -52 -23.5 -95.5t-63.5 -68.5t-88 -25h-119z
M312 364q45 0 82.5 21t59.5 57t22 80t-20 82.5t-54 61.5t-73 23h-125q-39 0 -72.5 -23t-53.5 -61.5t-20 -82.5t21.5 -80t59 -57t82.5 -21h91zM312 11q46 0 83.5 21.5t59 60t21.5 86.5q0 44 -22 80.5t-59.5 57.5t-82.5 21h-91q-45 0 -82.5 -21t-59 -57.5t-21.5 -80.5
q0 -48 21 -86.5t58.5 -60t83.5 -21.5h91z" />
    <glyph glyph-name="nine" unicode="9" horiz-adv-x="553" 
d="M64.5 579.5q31.5 61.5 87 96.5t124.5 35t125 -35t87.5 -96.5t31.5 -137.5v-200q0 -70 -32 -127.5t-88 -91t-124 -33.5q-51 0 -97 20t-81 57l21 20q30 -33 70.5 -50.5t86.5 -17.5q64 0 113.5 30t77 84t27.5 124v58q-45 -70 -95.5 -97t-122.5 -27q-68 0 -123.5 33
t-87.5 90.5t-32 127.5q0 76 31.5 137.5zM89 328q28 -51 77 -80t110 -29t111 29t78.5 80t28.5 114q0 70 -28 125t-77.5 86t-112.5 31q-62 0 -111 -31t-76.5 -86.5t-27.5 -124.5q0 -63 28 -114z" />
    <glyph glyph-name="colon" unicode=":" horiz-adv-x="113" 
d="M41 7.5q-6 6.5 -6 15.5q0 10 6 16.5t16 6.5t16.5 -6.5t6.5 -16.5q0 -9 -6.5 -15.5t-16.5 -6.5t-16 6.5zM39 451.5q-6 6.5 -6 15.5q0 10 6 16.5t16 6.5t16.5 -6.5t6.5 -16.5q0 -9 -6.5 -15.5t-16.5 -6.5t-16 6.5z" />
    <glyph glyph-name="semicolon" unicode=";" horiz-adv-x="114" 
d="M39 451.5q-6 6.5 -6 15.5q0 10 6 16.5t16 6.5t16.5 -6.5t6.5 -16.5q0 -9 -6.5 -15.5t-16.5 -6.5t-16 6.5zM81 46l-37 -165l-11 5l24 165z" />
    <glyph glyph-name="equal" unicode="=" horiz-adv-x="416" 
d="M383 328h-350v26h350v-26zM383 191h-350v26h350v-26z" />
    <glyph glyph-name="question" unicode="?" horiz-adv-x="502" 
d="M34 197q0 80 36 124.5t101 44.5h160q52 0 81.5 43.5t29.5 120.5q0 74 -29 115t-82 41h-164q-36 0 -63 -23t-35 -58h-27q8 45 43.5 75.5t81.5 30.5h164q63 0 100.5 -48.5t37.5 -132.5q0 -56 -17.5 -99t-49 -67t-71.5 -24h-160q-55 0 -82 -35t-27 -108v-54h-28v54zM39 7.5
q-6 6.5 -6 15.5q0 10 6 16.5t16 6.5t16.5 -6.5t6.5 -16.5q0 -9 -6.5 -15.5t-16.5 -6.5t-16 6.5z" />
    <glyph glyph-name="at" unicode="@" horiz-adv-x="765" 
d="M79.5 532.5q46.5 82.5 126.5 130t176 47.5t176.5 -48t127 -130.5t46.5 -180.5q0 -80 -31.5 -151t-89.5 -122h-34l-1 159q-25 -62 -76 -95.5t-123 -33.5q-61 0 -111 30t-79 82t-29 115q0 65 29 118.5t79 84t111 30.5t111.5 -31t80 -84.5t29.5 -117.5v-234q52 48 80 113.5
t28 136.5q0 91 -43.5 167t-117.5 120.5t-162 44.5q-89 0 -163 -44.5t-117 -120.5t-43 -167q0 -87 39.5 -160.5t108.5 -118.5t152 -51l1 -28q-91 5 -166 54t-118.5 129t-43.5 175q0 99 46.5 181.5zM210.5 233q25.5 -46 69.5 -72t98 -26q55 0 99.5 26t70 72t25.5 103
q0 59 -25 106t-69.5 74t-100.5 27q-54 0 -98 -27.5t-69.5 -74.5t-25.5 -105q0 -57 25.5 -103z" />
    <glyph glyph-name="A" unicode="A" 
d="M33 470q0 65 32.5 120t87.5 87.5t120 32.5q64 0 119.5 -32.5t88 -88t32.5 -119.5v-470h-24v296h-433v-296h-23v470zM56 322h431v138q0 62 -29 114t-78.5 82.5t-108.5 30.5t-108.5 -30.5t-78 -82.5t-28.5 -114v-138z" />
    <glyph glyph-name="B" unicode="B" horiz-adv-x="557" 
d="M33 1l1 350l-1 350h247q74 0 129 -25t85 -70.5t30 -106.5q0 -46 -15 -79t-50 -69q36 -37 50.5 -70.5t14.5 -78.5q0 -61 -30 -106t-85 -70t-129 -25h-247zM280 321q99 0 158.5 48.5t59.5 129.5q0 52 -27.5 92t-77 62t-113.5 22h-224v-354h224zM280 27q64 0 113.5 22
t77 61.5t27.5 91.5q0 41 -14.5 72t-46.5 63q-40 -23 -74.5 -32t-82.5 -9h-224v-269h224z" />
    <glyph glyph-name="C" unicode="C" horiz-adv-x="661" 
d="M206 40.5q-80 47.5 -126.5 130t-46.5 180.5q0 99 46.5 181.5t126.5 130t176 47.5q71 0 134 -26.5t112 -75.5l-22 -17q-45 44 -103 68t-120 24q-89 0 -163 -44.5t-117 -120.5t-43 -167t43 -167t117 -120t163 -44q58 0 112.5 21t98.5 59l18 -20q-48 -43 -106.5 -65
t-123.5 -22q-96 0 -176 47.5z" />
    <glyph glyph-name="D" unicode="D" horiz-adv-x="672" 
d="M33 1v700l264 -1q94 0 172.5 -46.5t124 -126.5t45.5 -176t-46 -176t-124.5 -127t-172.5 -47h-263zM288 31q88 0 162 43t117.5 116.5t43.5 160.5t-43.5 160.5t-118 117t-161.5 43.5h-231v-639z" />
    <glyph glyph-name="E" unicode="E" horiz-adv-x="517" 
d="M484 1h-451v700h451v-26h-426l2 -353h247v-26h-247l-2 -269h426v-26z" />
    <glyph glyph-name="F" unicode="F" horiz-adv-x="517" 
d="M58 1h-25v700h451v-26h-426l2 -353h247v-26h-247z" />
    <glyph glyph-name="G" unicode="G" horiz-adv-x="764" 
d="M206.5 38.5q-80.5 48.5 -127 131.5t-46.5 181q0 99 46.5 181.5t126.5 130.5t176 48q124 0 222 -80l-20 -20q-43 35 -94.5 54t-106.5 19q-88 0 -162 -44.5t-116.5 -121t-42.5 -167.5q0 -92 42.5 -168t116 -120.5t162.5 -44.5q78 0 146 35.5t114 99.5t59 144h-251v25h280
q-6 -92 -54.5 -168t-126 -120t-168.5 -44q-95 0 -175.5 48.5z" />
    <glyph glyph-name="H" unicode="H" horiz-adv-x="499" 
d="M58 1h-25v700h25l2 -380h378l3 380h25v-700h-26l-2 295h-378z" />
    <glyph glyph-name="I" unicode="I" horiz-adv-x="91" 
d="M58 1h-25v700h25v-700z" />
    <glyph glyph-name="J" unicode="J" horiz-adv-x="292" 
d="M33 30q56 4 102 34.5t72 79.5t26 108v449h26v-449q0 -67 -29 -122t-80.5 -89t-116.5 -39v28z" />
    <glyph glyph-name="K" unicode="K" horiz-adv-x="570" 
d="M79 1h-46l2 700h26l1 -674l399 667l23 -13l-203 -346l256 -316l-17 -19l-254 311z" />
    <glyph glyph-name="L" unicode="L" horiz-adv-x="437" 
d="M404 1h-371v700h29v-671h342v-29z" />
    <glyph glyph-name="M" unicode="M" horiz-adv-x="801" 
d="M62 0h-29l2 700h42l324 -646l318 646h49l-1 -700h-33l1 663l-322 -663h-25l-325 661z" />
    <glyph glyph-name="N" unicode="N" horiz-adv-x="579" 
d="M61 1h-28l2 699h35l446 -668l-4 668h34v-699h-52l-432 651z" />
    <glyph glyph-name="O" unicode="O" horiz-adv-x="765" 
d="M206 40.5q-80 47.5 -126.5 130t-46.5 180.5q0 99 46.5 181.5t126.5 130t176 47.5t176.5 -48t127 -130.5t46.5 -180.5t-46.5 -180.5t-127 -130t-176.5 -47.5t-176 47.5zM545 64.5q74 44.5 117.5 120.5t43.5 166q0 91 -43.5 167t-117.5 120.5t-162 44.5q-89 0 -163 -44.5
t-117 -120.5t-43 -167t43 -167t117 -120t163 -44q88 0 162 44.5z" />
    <glyph glyph-name="P" unicode="P" horiz-adv-x="548" 
d="M33 1l1 700h226q118 0 186.5 -54t68.5 -148q0 -95 -67.5 -149t-187.5 -54h-202v-295h-25zM260 321q110 0 169.5 46t59.5 132q0 84 -60 130t-169 46h-202v-354h202z" />
    <glyph glyph-name="Q" unicode="Q" horiz-adv-x="765" 
d="M438 -4q-30 -3 -56 -3q-96 0 -176 47.5t-126.5 130t-46.5 180.5q0 99 46.5 181.5t126.5 130t176 47.5t176.5 -48t127 -130.5t46.5 -180.5q0 -82 -33.5 -154t-93.5 -123t-138 -72l40 -111l-27 -9zM430 20l-45 130l28 8l45 -130q72 18 128.5 65.5t88 114.5t31.5 143
q0 91 -43.5 167t-117.5 120.5t-162 44.5q-89 0 -163 -44.5t-117 -120.5t-43 -167t43 -167t117 -120t163 -44h47z" />
    <glyph glyph-name="R" unicode="R" horiz-adv-x="548" 
d="M33 1l1 700h226q118 0 186.5 -54t68.5 -148q0 -86 -54.5 -138.5t-157.5 -62.5l145 -289l-24 -9l-149 296h-217v-295h-25zM260 321q110 0 169.5 46t59.5 132q0 84 -60 130t-169 46h-202v-354h202z" />
    <glyph glyph-name="S" unicode="S" horiz-adv-x="512" 
d="M166 -10q-46 0 -81.5 30.5t-43.5 75.5h27q8 -34 35.5 -57t62.5 -23h175q47 0 78.5 39.5t31.5 98.5q0 38 -15 71t-40 52t-55 19h-149q-45 0 -81.5 27t-57 74.5t-20.5 107.5q0 54 22 101.5t59 76t78 28.5h149q46 0 81.5 -30t43.5 -75h-26q-7 34 -35 56.5t-64 22.5h-149
q-34 0 -64.5 -25t-49 -66.5t-18.5 -88.5q0 -82 36.5 -133t95.5 -51h149q35 0 67 -23t51.5 -61.5t19.5 -82.5q0 -45 -18.5 -82.5t-50.5 -59.5t-69 -22h-175z" />
    <glyph glyph-name="T" unicode="T" horiz-adv-x="637" 
d="M316 1h-27v674h-256v26h571v-26h-288v-674z" />
    <glyph glyph-name="U" unicode="U" 
d="M153 22.5q-55 32.5 -87.5 88t-32.5 120.5v470h24l2 -454q0 -63 28.5 -116t77 -84t106.5 -31t106.5 31t77 84t28.5 116l3 454h27v-470q0 -64 -32.5 -119.5t-88 -88.5t-119.5 -33q-65 0 -120 32.5z" />
    <glyph glyph-name="V" unicode="V" horiz-adv-x="526" 
d="M312 22q-22 -21 -51 -21q-31 0 -53 22l-175 169v509h28v-495l163 -156q17 -15 36 -15q20 0 36 14l170 157v495h27v-508z" />
    <glyph glyph-name="W" unicode="W" horiz-adv-x="791" 
d="M35 1l-2 699h25l1 -665l325 665h24l323 -661l-1 661h27l1 -699h-37l-325 660l-328 -660h-33z" />
    <glyph glyph-name="X" unicode="X" 
d="M33 77q0 83 43.5 142.5t125.5 90.5q-79 27 -124 87.5t-45 142.5v161h23l2 -161q0 -58 28.5 -108t77 -80t107.5 -30q60 0 108.5 28.5t77 78t29.5 111.5l2 161h25v-161q0 -82 -44.5 -141.5t-124.5 -88.5q81 -32 125 -92.5t44 -140.5v-76h-27v75q0 62 -28.5 112t-77.5 79
t-109 29q-59 0 -107 -29t-76 -79t-29 -111l-1 -76h-25v76z" />
    <glyph glyph-name="Y" unicode="Y" 
d="M262 294q-64 3 -116.5 36t-82.5 87t-30 117v166h25l2 -165q0 -61 27.5 -109.5t75.5 -76t108 -27.5q59 0 106.5 27t75 75.5t29.5 110.5l5 165h26v-166q0 -61 -30 -115t-82 -87.5t-113 -37.5v-293h-26v293z" />
    <glyph glyph-name="Z" unicode="Z" horiz-adv-x="521" 
d="M472 1h-437l-2 32l420 639h-417l-1 28h453v-33l-414 -638h398v-28z" />
    <glyph glyph-name="bracketleft" unicode="[" horiz-adv-x="170" 
d="M137 -72q-48 6 -76 38t-28 81v533q0 49 28.5 81t75.5 38v-25q-80 -17 -80 -100v-519q0 -47 20.5 -70.5t59.5 -31.5v-25z" />
    <glyph glyph-name="backslash" unicode="\" horiz-adv-x="213" 
d="M180 -2l-25 -4l-122 698l25 5z" />
    <glyph glyph-name="bracketright" unicode="]" horiz-adv-x="170" 
d="M33 -47q39 8 59.5 31.5t20.5 70.5v519q0 83 -80 100v25q47 -6 75.5 -38t28.5 -81v-533q0 -49 -28 -81t-76 -38v25z" />
    <glyph glyph-name="underscore" unicode="_" horiz-adv-x="416" 
d="M383 1h-350v26h350v-26z" />
    <glyph glyph-name="a" unicode="a" horiz-adv-x="553" 
d="M65 372.5q32 59.5 87.5 93.5t123.5 34q72 0 129.5 -38t88.5 -102v140h26v-499h-16l-10 114q-42 -63 -94.5 -93.5t-123.5 -31.5q-68 0 -123.5 33t-87.5 90.5t-32 127.5q0 72 32 131.5zM89 127.5q28 -50.5 77 -79.5t110 -29t111 29t78.5 79.5t28.5 113.5q0 66 -28 119
t-78 83t-112 30q-60 0 -109 -30.5t-77.5 -83.5t-28.5 -118q0 -63 28 -113.5z" />
    <glyph glyph-name="b" unicode="b" horiz-adv-x="553" 
d="M33 0v700h26v-332q37 63 90 97t127 34q68 0 124 -33t88 -90t32 -127q0 -72 -32 -131.5t-88 -93.5t-124 -34q-72 0 -129.5 38t-87.5 102l-10 -130h-16zM87 130.5q28 -52.5 77.5 -82.5t111.5 -30q61 0 110 30t77.5 83t28.5 118q0 63 -28 113.5t-77.5 79.5t-110.5 29
t-110.5 -29t-78 -80t-28.5 -113q0 -66 28 -118.5z" />
    <glyph glyph-name="c" unicode="c" horiz-adv-x="476" 
d="M152.5 22q-55.5 33 -87.5 91t-32 128q0 72 32 131t87.5 93t123.5 34q48 0 90.5 -17.5t76.5 -50.5l-20 -16q-29 27 -67 42t-80 15q-60 0 -109 -30.5t-77.5 -83t-28.5 -117.5q0 -63 28 -114t77 -80t110 -29q38 0 74 13t65 36l19 -20q-67 -58 -158 -58q-68 0 -123.5 33z" />
    <glyph glyph-name="d" unicode="d" horiz-adv-x="553" 
d="M520 0h-16l-10 130q-30 -64 -87.5 -102t-129.5 -38q-68 0 -124 34t-88 93.5t-32 131.5q0 70 32 127t88 90t124 33q74 0 127 -34t90 -97v332h26v-700zM465.5 362q-28.5 51 -78 80t-110.5 29t-110.5 -29t-77.5 -79.5t-28 -113.5q0 -65 28.5 -118t77.5 -83t110 -30
q62 0 111.5 30t77.5 82.5t28 118.5q0 62 -28.5 113z" />
    <glyph glyph-name="e" unicode="e" horiz-adv-x="523" 
d="M152.5 23.5q-55.5 33.5 -87.5 91t-32 127.5q0 72 32 131t87.5 93t123.5 34q147 0 214 -141l-398 -235q28 -50 77 -77.5t107 -27.5q38 0 74 13t65 36l19 -20q-67 -58 -158 -58q-68 0 -123.5 33.5zM454 365q-28 53 -73.5 80.5t-104.5 27.5q-60 0 -109 -30.5t-77.5 -83
t-28.5 -117.5q0 -51 19 -91z" />
    <glyph glyph-name="f" unicode="f" horiz-adv-x="296" 
d="M78 0v388h-45v25h45v82q0 52 24.5 97t67 74t93.5 34l-1 -18q-68 -11 -112.5 -64t-44.5 -123v-82h142v-25h-142v-388h-27z" />
    <glyph glyph-name="g" unicode="g" horiz-adv-x="553" 
d="M65 382q32 59 87.5 93t123.5 34q72 0 130 -37.5t88 -101.5v130h26v-450q0 -70 -32 -127t-88 -90.5t-124 -33.5q-52 0 -98 20t-80 57l21 19q30 -32 70.5 -49.5t86.5 -17.5q61 0 111 29t78.5 80t28.5 113v78q-43 -67 -94 -97.5t-124 -31.5q-68 0 -123.5 33t-87.5 91
t-32 128q0 72 32 131zM89 137q28 -51 77 -80t110 -29t111 29t78.5 80t28.5 114q0 66 -28 118.5t-78 82.5t-112 30q-60 0 -109 -30.5t-77.5 -83t-28.5 -117.5q0 -63 28 -114z" />
    <glyph glyph-name="h" unicode="h" horiz-adv-x="526" 
d="M33 0v700h26v-317q45 66 94 96t113 30q66 0 117.5 -32t80.5 -88.5t29 -129.5v-259h-29v259q0 65 -25 115.5t-70 78.5t-103 28q-60 0 -107 -28.5t-73.5 -79t-26.5 -114.5v-259h-26z" />
    <glyph glyph-name="i" unicode="i" horiz-adv-x="111" 
d="M39 662.5q-6 6.5 -6 15.5q0 10 6 16.5t16 6.5t16.5 -6.5t6.5 -16.5q0 -9 -6.5 -15.5t-16.5 -6.5t-16 6.5zM70 0h-27v500h27v-500z" />
    <glyph glyph-name="j" unicode="j" horiz-adv-x="299" 
d="M226.5 662.5q-6.5 6.5 -6.5 15.5q0 10 6.5 16.5t15.5 6.5q10 0 17 -6.5t7 -16.5q0 -9 -7 -15.5t-17 -6.5q-9 0 -15.5 6.5zM33 -172q56 4 102 34.5t72 79.5t26 108v450h26v-450q0 -67 -29 -122t-80.5 -89t-116.5 -39v28z" />
    <glyph glyph-name="k" unicode="k" horiz-adv-x="481" 
d="M65 1h-32l1 700h28v-659l366 437l20 -18l-204 -247l200 -189l-19 -17l-198 183z" />
    <glyph glyph-name="l" unicode="l" horiz-adv-x="92" 
d="M59 0h-26v700h26v-700z" />
    <glyph glyph-name="m" unicode="m" horiz-adv-x="959" 
d="M33 0v500h16l10 -116q45 66 94 96t113 30q72 0 121.5 -32t93.5 -102q41 70 92 102t126 32q66 0 117.5 -32t80.5 -88.5t29 -129.5v-260h-29v260q0 65 -24.5 115.5t-69.5 78.5t-104 28q-60 0 -107 -28.5t-73 -79t-26 -114.5v-260h-29v260q0 65 -25 115.5t-70 78.5t-103 28
q-60 0 -107 -28.5t-73.5 -79t-26.5 -114.5v-260h-26z" />
    <glyph glyph-name="n" unicode="n" horiz-adv-x="526" 
d="M33 0v500h16l10 -117q27 58 84 92t123 34t117.5 -32t80.5 -88.5t29 -129.5v-259h-29v259q0 65 -25 115.5t-70 78.5t-103 28q-60 0 -107 -28.5t-73.5 -79t-26.5 -114.5v-259h-26z" />
    <glyph glyph-name="o" unicode="o" horiz-adv-x="553" 
d="M152.5 24.5q-55.5 34.5 -87.5 93.5t-32 129q0 77 32 137t87 93t124 33t124.5 -33.5t87.5 -93t32 -136.5q0 -70 -32 -129t-88 -93.5t-124 -34.5t-123.5 34.5zM387 49.5q50 30.5 78.5 82.5t28.5 115q0 70 -28 123.5t-77.5 83t-112.5 29.5q-61 0 -110 -29.5t-77 -83.5
t-28 -123q0 -63 28 -115t77.5 -82.5t109.5 -30.5q61 0 111 30.5z" />
    <glyph glyph-name="p" unicode="p" horiz-adv-x="553" 
d="M33 500h26v-131q30 64 87.5 102t129.5 38q69 0 124.5 -33.5t87.5 -93.5t32 -137q0 -70 -32 -128.5t-88 -92.5t-124 -34q-74 0 -127 34t-90 97v-321h-26v700zM87.5 127q28.5 -51 78 -80t110.5 -29t110.5 30t77.5 82t28 115q0 70 -28 123.5t-77.5 83t-110.5 29.5
q-62 0 -111.5 -30.5t-77.5 -85t-28 -125.5q0 -62 28.5 -113z" />
    <glyph glyph-name="q" unicode="q" horiz-adv-x="594" 
d="M520 500v-700h-26v322q-37 -63 -90 -97t-127 -34q-69 0 -124.5 32t-87.5 90t-32 133q0 73 32 133.5t88 95.5t124 35q72 0 129.5 -38t87.5 -102v130h26zM466 366q-28 54 -77.5 85t-111.5 31q-60 0 -109.5 -31.5t-78 -85.5t-28.5 -119q0 -67 28 -118.5t77 -80t111 -28.5
t111.5 28.5t77.5 80t28 118.5q0 66 -28 120z" />
    <glyph glyph-name="r" unicode="r" horiz-adv-x="250" 
d="M33 0v500h26v-103q25 45 66.5 73.5t91.5 29.5v-24q-44 -3 -80 -28.5t-57 -66t-21 -86.5v-295h-26z" />
    <glyph glyph-name="s" unicode="s" horiz-adv-x="501" 
d="M160 -10q-46 0 -82 30.5t-44 75.5h27q8 -34 35.5 -57t63.5 -23h181q44 0 72 28.5t28 74.5q0 48 -28.5 79.5t-71.5 31.5h-181q-34 0 -63 18.5t-46.5 50t-17.5 68.5q0 55 37 93.5t90 38.5h181q46 0 81.5 -30t43.5 -75h-26q-7 34 -35 56.5t-64 22.5h-181q-43 0 -71 -30
t-28 -76q0 -48 28 -80t71 -32h181q34 0 63.5 -18.5t46.5 -49.5t17 -68q0 -56 -36 -92.5t-91 -36.5h-181z" />
    <glyph glyph-name="t" unicode="t" horiz-adv-x="296" 
d="M263 0q-51 5 -93.5 34t-67 73.5t-24.5 97.5v269h-45v26h45v200h27v-200h142v-26h-142v-269q0 -69 44.5 -119t112.5 -62z" />
    <glyph glyph-name="u" unicode="u" horiz-adv-x="526" 
d="M33 500h28v-259q0 -65 25 -115.5t70 -78.5t103 -28q60 0 107 28.5t73.5 79t26.5 114.5v259h27v-500h-17l-10 117q-32 -64 -86 -95.5t-121 -31.5q-66 0 -117.5 32t-80 89t-28.5 130v259z" />
    <glyph glyph-name="v" unicode="v" horiz-adv-x="526" 
d="M312 22q-22 -21 -51 -21q-31 0 -53 22l-175 169v308h28v-294l163 -160q17 -15 36 -15q20 0 36 14l170 161v294h27v-307z" />
    <glyph glyph-name="w" unicode="w" horiz-adv-x="959" 
d="M33 500h28v-259q0 -65 25 -115.5t70 -78.5t103 -28q60 0 107 28.5t73.5 79t26.5 114.5v259h29v-259q0 -65 24.5 -115.5t69.5 -78.5t104 -28q60 0 107 28.5t73.5 79t26.5 114.5v259h26v-500h-16l-10 117q-33 -64 -87 -95.5t-120 -31.5q-76 1 -128 35t-84 110
q-44 -82 -95 -113t-127 -32q-66 0 -117.5 32t-80 89t-28.5 130v259z" />
    <glyph glyph-name="x" unicode="x" horiz-adv-x="511" 
d="M33 5q0 91 40 155.5t115 89.5q-71 21 -113 85t-42 149v16h28v-13q0 -100 53 -158.5t141 -58.5q89 0 142.5 58.5t53.5 158.5v13h27v-16q0 -87 -44 -151.5t-115 -82.5q47 -11 83 -46t56 -87t20 -112v-5h-27v5q0 64 -23.5 115t-64.5 79.5t-93 28.5h-30q-51 0 -92 -29
t-64 -79.5t-23 -114.5v-5h-28v5z" />
    <glyph glyph-name="y" unicode="y" horiz-adv-x="526" 
d="M150 -180q-46 20 -80 57l22 19q29 -32 70 -49.5t87 -17.5q64 0 113 30t76.5 83.5t27.5 123.5v50q-52 -124 -207 -126q-66 0 -117.5 32t-80 89t-28.5 130v259h28v-259q0 -65 25 -115.5t70 -78.5t103 -28q60 0 107 28.5t73.5 79t26.5 114.5v259h27v-449q0 -69 -32.5 -126.5
t-88.5 -91t-123 -33.5q-53 0 -99 20z" />
    <glyph glyph-name="z" unicode="z" horiz-adv-x="533" 
d="M477 0h-442l-2 30l429 442h-424v28h462v-31l-425 -441h402v-28z" />
    <glyph glyph-name="braceleft" unicode="{" horiz-adv-x="214" 
d="M181 -69q-48 6 -76.5 38t-28.5 81v142q0 27 -11.5 50.5t-31.5 37.5v70q20 14 31.5 37.5t11.5 50.5v142q0 49 28.5 81t76.5 38v-29q-36 -8 -58.5 -37t-22.5 -69v-144q0 -72 -57 -105q57 -34 57 -105v-144q0 -40 22.5 -69t58.5 -37v-29z" />
    <glyph glyph-name="bar" unicode="|" horiz-adv-x="134" 
d="M101 1h-68v700h68v-700z" />
    <glyph glyph-name="braceright" unicode="}" horiz-adv-x="214" 
d="M33 -40q36 8 58.5 37t22.5 69v144q0 71 57 105q-57 33 -57 105v144q0 40 -22.5 69t-58.5 37v29q48 -6 76.5 -38t28.5 -81v-142q0 -27 11.5 -50.5t31.5 -37.5v-70q-20 -14 -31.5 -37.5t-11.5 -50.5v-142q0 -49 -28.5 -81t-76.5 -38v29z" />
    <glyph glyph-name="exclamdown" unicode="&#xa1;" horiz-adv-x="111" 
d="M71.5 745.5q6.5 -6.5 6.5 -15.5q0 -10 -6.5 -16.5t-16.5 -6.5t-16 6.5t-6 16.5q0 9 6 15.5t16 6.5t16.5 -6.5zM44 42l9 487h6l10 -487h-25z" />
    <glyph glyph-name="cent" unicode="&#xa2;" horiz-adv-x="476" 
d="M434 147q-66 -57 -152 -58v-88h-25v89q-64 4 -115 38t-80 90t-29 123q0 69 29 126t80 92t115 39v103h25v-102q95 -3 161 -68l-20 -16q-28 27 -64 41.5t-77 15.5v-454q36 1 70.5 13.5t62.5 35.5zM86.5 233q25.5 -49 70 -79.5t100.5 -34.5v452q-56 -5 -100.5 -36t-70 -82
t-25.5 -112q0 -59 25.5 -108z" />
    <glyph glyph-name="sterling" unicode="&#xa3;" horiz-adv-x="575" 
d="M197 1v295h-164v25h164v260q0 53 34 86.5t86 33.5h225v-26h-212q-46 0 -76.5 -31t-30.5 -77l1 -246h194v-25h-193l-3 -269h320v-26h-345z" />
    <glyph glyph-name="yen" unicode="&#xa5;" 
d="M263 1v72h-156v27h156v79h-156v27h156v88q-64 3 -116.5 36t-83 87t-30.5 117v167h25l2 -166q0 -61 27.5 -109.5t75.5 -76t108 -27.5q59 0 106.5 27t75 75.5t29.5 110.5l6 166h25v-167q0 -61 -30 -115t-82 -87.5t-113 -37.5v-88h170v-27h-170v-79h170v-27h-170v-72h-25z
" />
    <glyph glyph-name="section" unicode="&#xa7;" horiz-adv-x="501" 
d="M160 -10q-46 0 -82 30.5t-44 75.5h27q8 -34 35.5 -57t63.5 -23h181q47 0 73.5 24.5t26.5 67.5q0 49 -28 80t-72 31h-181q-34 0 -63.5 17t-46.5 46.5t-17 63.5q-1 45 15.5 71.5t57.5 46.5q-73 29 -73 113q0 57 36.5 95.5t90.5 38.5h181q46 0 81.5 -30t43.5 -75h-26
q-7 34 -35 56.5t-64 22.5h-181q-43 0 -71 -29.5t-28 -74.5q0 -49 26 -76t73 -27h181q31 0 60.5 -19.5t48 -50.5t18.5 -63q0 -36 -22 -70t-53 -41q35 -19 55 -52.5t20 -73.5q0 -53 -35 -85.5t-92 -32.5h-181zM341 246q43 0 71.5 26.5t28.5 65.5q0 49 -28 80t-72 31h-183
q-97 -11 -97 -103q0 -42 29 -71t70 -29h181z" />
    <glyph glyph-name="copyright" unicode="&#xa9;" horiz-adv-x="765" 
d="M206 40.5q-80 47.5 -126.5 130t-46.5 180.5q0 99 46.5 181.5t126.5 130t176 47.5t176.5 -48t127 -130.5t46.5 -180.5t-46.5 -180.5t-127 -130t-176.5 -47.5t-176 47.5zM545 64.5q74 44.5 117.5 120.5t43.5 166q0 91 -43.5 167t-117.5 120.5t-162 44.5q-89 0 -163 -44.5
t-117 -120.5t-43 -167t43 -167t117 -120t163 -44q88 0 162 44.5zM249.5 128q-55.5 33 -87.5 91t-32 128q0 72 32 131t87.5 93t123.5 34q48 0 90.5 -17.5t76.5 -50.5l-20 -16q-29 27 -67 42t-80 15q-60 0 -109 -30.5t-77.5 -83t-28.5 -117.5q0 -63 28 -114t77 -80t110 -29
q38 0 74 13t65 36l19 -20q-67 -58 -158 -58q-68 0 -123.5 33z" />
    <glyph glyph-name="ordfeminine" unicode="&#xaa;" horiz-adv-x="311" 
d="M33 367h10v144h226v-144h9l-1 226q0 55 -35.5 91t-86.5 36t-86 -36t-35 -91zM44 594q0 48 32 82.5t80 34.5q33 0 58.5 -17t39.5 -44t14 -56v-74h-224v74z" />
    <glyph glyph-name="guillemotleft" unicode="&#xab;" horiz-adv-x="437" 
d="M197 138l-30 -26l-134 152l141 149l28 -28l-117 -121zM398 138l-29 -26l-135 152l142 149l28 -28l-118 -121z" />
    <glyph glyph-name="registered" unicode="&#xae;" horiz-adv-x="586" 
d="M162 238q-60 36 -94.5 97t-34.5 134t34.5 134.5t94.5 97.5t131 36q72 0 131.5 -35.5t94 -97t34.5 -135.5q0 -73 -35 -134t-94.5 -97t-130.5 -36t-131 36zM412 258q55 33 87 89.5t32 122.5t-32 122t-87 89t-119 33q-65 0 -120 -32.5t-86.5 -88.5t-31.5 -123t31.5 -123.5
t86.5 -89t120 -32.5q64 0 119 33zM349 349l-45 69h-81v-72h-10v251h88q36 0 62 -26t26 -62q0 -22 -11.5 -42t-29 -33t-33.5 -14l45 -71h-11zM299 428q31 0 55 24t24 58q0 33 -23.5 55.5t-55.5 22.5h-76v-160h76z" />
    <glyph glyph-name="periodcentered" unicode="&#xb7;" horiz-adv-x="111" 
d="M39 285.5q-6 6.5 -6 15.5q0 10 6 16.5t16 6.5t16.5 -6.5t6.5 -16.5q0 -9 -6.5 -15.5t-16.5 -6.5t-16 6.5z" />
    <glyph glyph-name="guillemotright" unicode="&#xbb;" horiz-adv-x="437" 
d="M203 264l-135 -152l-29 26l112 126l-118 121l28 28zM404 264l-134 -152l-30 26l112 126l-117 121l28 28z" />
    <glyph glyph-name="questiondown" unicode="&#xbf;" horiz-adv-x="502" 
d="M463 734.5q6 -6.5 6 -15.5q0 -10 -6 -16.5t-16 -6.5t-16.5 6.5t-6.5 16.5q0 9 6.5 15.5t16.5 6.5t16 -6.5zM468 545q0 -80 -36 -124.5t-101 -44.5h-160q-52 0 -81.5 -43.5t-29.5 -120.5q0 -74 29 -115t82 -41h164q36 0 63 23t35 58h27q-8 -45 -43.5 -75.5t-81.5 -30.5
h-164q-63 0 -100.5 48.5t-37.5 132.5q0 56 17.5 99t49 67t71.5 24h160q55 0 82 35t27 108v54h28v-54z" />
    <glyph glyph-name="Agrave" unicode="&#xc0;" 
d="M33 470q0 65 32.5 120t87.5 87.5t120 32.5q64 0 119.5 -32.5t88 -88t32.5 -119.5v-470h-24v296h-433v-296h-23v470zM56 322h431v138q0 62 -29 114t-78.5 82.5t-108.5 30.5t-108.5 -30.5t-78 -82.5t-28.5 -114v-138zM303 763h-12l-19 37h21z" />
    <glyph glyph-name="Aacute" unicode="&#xc1;" 
d="M33 470q0 65 32.5 120t87.5 87.5t120 32.5q64 0 119.5 -32.5t88 -88t32.5 -119.5v-470h-24v296h-433v-296h-23v470zM56 322h431v138q0 62 -29 114t-78.5 82.5t-108.5 30.5t-108.5 -30.5t-78 -82.5t-28.5 -114v-138zM270 763h-12l10 37h21z" />
    <glyph glyph-name="Acircumflex" unicode="&#xc2;" 
d="M33 470q0 65 32.5 120t87.5 87.5t120 32.5q64 0 119.5 -32.5t88 -88t32.5 -119.5v-470h-24v296h-433v-296h-23v470zM56 322h431v138q0 62 -29 114t-78.5 82.5t-108.5 30.5t-108.5 -30.5t-78 -82.5t-28.5 -114v-138zM249 760h-21l25 40h34l25 -40h-22l-20 27z" />
    <glyph glyph-name="Atilde" unicode="&#xc3;" 
d="M33 470q0 65 32.5 120t87.5 87.5t120 32.5q64 0 119.5 -32.5t88 -88t32.5 -119.5v-470h-24v296h-433v-296h-23v470zM56 322h431v138q0 62 -29 114t-78.5 82.5t-108.5 30.5t-108.5 -30.5t-78 -82.5t-28.5 -114v-138zM242 781l-29 -21l-25 34l13 6l15 -21l29 21l22 -28
l-11 -8z" />
    <glyph glyph-name="Adieresis" unicode="&#xc4;" 
d="M33 470q0 65 32.5 120t87.5 87.5t120 32.5q64 0 119.5 -32.5t88 -88t32.5 -119.5v-470h-24v296h-433v-296h-23v470zM56 322h431v138q0 62 -29 114t-78.5 82.5t-108.5 30.5t-108.5 -30.5t-78 -82.5t-28.5 -114v-138zM240 764h-13v36h13v-36zM277 763h-14v37h14v-37z" />
    <glyph glyph-name="Aring" unicode="&#xc5;" 
d="M303 758q11 11 11 26q0 16 -10.5 27.5t-26.5 11.5t-26.5 -11t-10.5 -28q0 -15 10.5 -26t26.5 -11q15 0 26 11zM262.5 769.5q-5.5 6.5 -5.5 15.5q0 10 5.5 16t14.5 6t15 -6t6 -16q0 -9 -6.5 -15.5t-14.5 -6.5q-9 0 -14.5 6.5zM33 470q0 65 32.5 120t87.5 87.5t120 32.5
q64 0 119.5 -32.5t88 -88t32.5 -119.5v-470h-24v296h-433v-296h-23v470zM56 322h431v138q0 62 -29 114t-78.5 82.5t-108.5 30.5t-108.5 -30.5t-78 -82.5t-28.5 -114v-138z" />
    <glyph glyph-name="AE" unicode="&#xc6;" horiz-adv-x="973" 
d="M940 701v-26h-426l2 -353h247v-26h-247l-2 -269h426v-26h-427v-1h-24v296h-433v-296h-23v470q0 65 32.5 120t87.5 87.5t120 32.5q69 0 127.5 -37.5t88.5 -98.5v127h451zM487 322v138q0 62 -29 114t-78.5 82.5t-108.5 30.5t-108.5 -30.5t-78 -82.5t-28.5 -114v-138h431z
" />
    <glyph glyph-name="Ccedilla" unicode="&#xc7;" horiz-adv-x="661" 
d="M79.5 532.5q46.5 82.5 126.5 130t176 47.5q71 0 134 -26.5t112 -75.5l-22 -17q-45 44 -103 68t-120 24q-89 0 -163 -44.5t-117 -120.5t-43 -167t43 -167t117 -120t163 -44q58 0 112.5 21t98.5 59l18 -20q-46 -41 -102 -63t-118 -24v-36q34 -10 50.5 -27t16.5 -52
q0 -40 -28 -59t-65 -19q-29 0 -53.5 18t-35.5 47l21 15q10 -27 29.5 -39t38.5 -12q21 0 43 11.5t22 35.5q0 30 -22 43.5t-51 12.5v62q-90 6 -164.5 54.5t-117.5 128.5t-43 174q0 99 46.5 181.5z" />
    <glyph glyph-name="Egrave" unicode="&#xc8;" horiz-adv-x="517" 
d="M484 1h-451v700h451v-26h-426l2 -353h247v-26h-247l-2 -269h426v-26zM281 763h-12l-19 37h21z" />
    <glyph glyph-name="Eacute" unicode="&#xc9;" horiz-adv-x="517" 
d="M484 1h-451v700h451v-26h-426l2 -353h247v-26h-247l-2 -269h426v-26zM252 763h-12l10 37h21z" />
    <glyph glyph-name="Ecircumflex" unicode="&#xca;" horiz-adv-x="517" 
d="M484 1h-451v700h451v-26h-426l2 -353h247v-26h-247l-2 -269h426v-26zM241 760h-21l25 40h34l25 -40h-22l-20 27z" />
    <glyph glyph-name="Edieresis" unicode="&#xcb;" horiz-adv-x="517" 
d="M484 1h-451v700h451v-26h-426l2 -353h247v-26h-247l-2 -269h426v-26zM207 764h-13v36h13v-36zM244 763h-14v37h14v-37z" />
    <glyph glyph-name="Igrave" unicode="&#xcc;" horiz-adv-x="134" 
d="M101 1h-25v700h25v-700zM75 763h-12l-19 37h21z" />
    <glyph glyph-name="Iacute" unicode="&#xcd;" horiz-adv-x="123" 
d="M90 800l-19 -37h-12l10 37h21zM58 701v-700h-25v700h25z" />
    <glyph glyph-name="Icircumflex" unicode="&#xce;" horiz-adv-x="579" 
d="M61 1h-28l2 699h35l446 -668l-4 668h34v-699h-52l-432 651zM245 760h-21l25 40h34l25 -40h-22l-20 27z" />
    <glyph glyph-name="Idieresis" unicode="&#xcf;" horiz-adv-x="138" 
d="M105 1h-25v700h25v-700zM57 764h-13v36h13v-36zM94 763h-14v37h14v-37z" />
    <glyph glyph-name="Ntilde" unicode="&#xd1;" horiz-adv-x="579" 
d="M61 1h-28l2 699h35l446 -668l-4 668h34v-699h-52l-432 651zM277 781l-29 -21l-25 34l13 6l15 -21l29 21l22 -28l-11 -8z" />
    <glyph glyph-name="Ograve" unicode="&#xd2;" horiz-adv-x="765" 
d="M363 763h-12l-19 37h21zM206 40.5q-80 47.5 -126.5 130t-46.5 180.5q0 99 46.5 181.5t126.5 130t176 47.5t176.5 -48t127 -130.5t46.5 -180.5t-46.5 -180.5t-127 -130t-176.5 -47.5t-176 47.5zM545 64.5q74 44.5 117.5 120.5t43.5 166q0 91 -43.5 167t-117.5 120.5
t-162 44.5q-89 0 -163 -44.5t-117 -120.5t-43 -167t43 -167t117 -120t163 -44q88 0 162 44.5z" />
    <glyph glyph-name="Oacute" unicode="&#xd3;" horiz-adv-x="765" 
d="M395 763h-12l10 37h21zM206 40.5q-80 47.5 -126.5 130t-46.5 180.5q0 99 46.5 181.5t126.5 130t176 47.5t176.5 -48t127 -130.5t46.5 -180.5t-46.5 -180.5t-127 -130t-176.5 -47.5t-176 47.5zM545 64.5q74 44.5 117.5 120.5t43.5 166q0 91 -43.5 167t-117.5 120.5
t-162 44.5q-89 0 -163 -44.5t-117 -120.5t-43 -167t43 -167t117 -120t163 -44q88 0 162 44.5z" />
    <glyph glyph-name="Ocircumflex" unicode="&#xd4;" horiz-adv-x="765" 
d="M206 40.5q-80 47.5 -126.5 130t-46.5 180.5q0 99 46.5 181.5t126.5 130t176 47.5t176.5 -48t127 -130.5t46.5 -180.5t-46.5 -180.5t-127 -130t-176.5 -47.5t-176 47.5zM545 64.5q74 44.5 117.5 120.5t43.5 166q0 91 -43.5 167t-117.5 120.5t-162 44.5q-89 0 -163 -44.5
t-117 -120.5t-43 -167t43 -167t117 -120t163 -44q88 0 162 44.5zM341 760h-21l25 40h34l25 -40h-22l-20 27z" />
    <glyph glyph-name="Otilde" unicode="&#xd5;" horiz-adv-x="765" 
d="M206 40.5q-80 47.5 -126.5 130t-46.5 180.5q0 99 46.5 181.5t126.5 130t176 47.5t176.5 -48t127 -130.5t46.5 -180.5t-46.5 -180.5t-127 -130t-176.5 -47.5t-176 47.5zM545 64.5q74 44.5 117.5 120.5t43.5 166q0 91 -43.5 167t-117.5 120.5t-162 44.5q-89 0 -163 -44.5
t-117 -120.5t-43 -167t43 -167t117 -120t163 -44q88 0 162 44.5zM389 781l-29 -21l-25 34l13 6l15 -21l29 21l22 -28l-11 -8z" />
    <glyph glyph-name="Odieresis" unicode="&#xd6;" horiz-adv-x="765" 
d="M206 40.5q-80 47.5 -126.5 130t-46.5 180.5q0 99 46.5 181.5t126.5 130t176 47.5t176.5 -48t127 -130.5t46.5 -180.5t-46.5 -180.5t-127 -130t-176.5 -47.5t-176 47.5zM545 64.5q74 44.5 117.5 120.5t43.5 166q0 91 -43.5 167t-117.5 120.5t-162 44.5q-89 0 -163 -44.5
t-117 -120.5t-43 -167t43 -167t117 -120t163 -44q88 0 162 44.5zM345 764h-13v36h13v-36zM382 763h-14v37h14v-37z" />
    <glyph glyph-name="multiply" unicode="&#xd7;" horiz-adv-x="348" 
d="M52 179l-19 19l123 123l-107 108l18 18l108 -107l106 107l19 -19l-106 -107l121 -121l-19 -19l-121 121z" />
    <glyph glyph-name="Oslash" unicode="&#xd8;" horiz-adv-x="765" 
d="M327 -59l-25 4l11 54q-81 16 -145 67t-99.5 125.5t-35.5 159.5q0 99 46.5 181.5t126.5 130t176 47.5q36 0 82 -8l11 48l25 -5l-11 -52q72 -23 127 -74t85.5 -120.5t30.5 -147.5q0 -98 -46.5 -180.5t-127 -130t-176.5 -47.5q-25 0 -44 4zM458 673q-30 10 -75 10
q-89 0 -163 -44.5t-117 -120.5t-43 -167q0 -79 33 -147.5t91.5 -115.5t134.5 -62zM383 20q88 0 162 44.5t117.5 120.5t43.5 166q0 71 -27.5 135t-78 111t-117.5 70l-140 -647h40z" />
    <glyph glyph-name="Ugrave" unicode="&#xd9;" 
d="M300 763h-12l-19 37h21zM153 22.5q-55 32.5 -87.5 88t-32.5 120.5v470h24l2 -454q0 -63 28.5 -116t77 -84t106.5 -31t106.5 31t77 84t28.5 116l3 454h27v-470q0 -64 -32.5 -119.5t-88 -88.5t-119.5 -33q-65 0 -120 32.5z" />
    <glyph glyph-name="Uacute" unicode="&#xda;" 
d="M331 763h-12l10 37h21zM153 22.5q-55 32.5 -87.5 88t-32.5 120.5v470h24l2 -454q0 -63 28.5 -116t77 -84t106.5 -31t106.5 31t77 84t28.5 116l3 454h27v-470q0 -64 -32.5 -119.5t-88 -88.5t-119.5 -33q-65 0 -120 32.5z" />
    <glyph glyph-name="Ucircumflex" unicode="&#xdb;" 
d="M153 22.5q-55 32.5 -87.5 88t-32.5 120.5v470h24l2 -454q0 -63 28.5 -116t77 -84t106.5 -31t106.5 31t77 84t28.5 116l3 454h27v-470q0 -64 -32.5 -119.5t-88 -88.5t-119.5 -33q-65 0 -120 32.5zM235 760h-21l25 40h34l25 -40h-22l-20 27z" />
    <glyph glyph-name="Udieresis" unicode="&#xdc;" 
d="M153 22.5q-55 32.5 -87.5 88t-32.5 120.5v470h24l2 -454q0 -63 28.5 -116t77 -84t106.5 -31t106.5 31t77 84t28.5 116l3 454h27v-470q0 -64 -32.5 -119.5t-88 -88.5t-119.5 -33q-65 0 -120 32.5zM232 764h-13v36h13v-36zM269 763h-14v37h14v-37z" />
    <glyph glyph-name="Yacute" unicode="&#xdd;" 
d="M276 763h-12l10 37h21zM262 294q-64 3 -116.5 36t-82.5 87t-30 117v166h25l2 -165q0 -61 27.5 -109.5t75.5 -76t108 -27.5q59 0 106.5 27t75 75.5t29.5 110.5l5 165h26v-166q0 -61 -30 -115t-82 -87.5t-113 -37.5v-293h-26v293z" />
    <glyph glyph-name="germandbls" unicode="&#xdf;" horiz-adv-x="495" 
d="M211 1v20h62q45 0 82.5 21t59 57t21.5 80t-21.5 80.5t-59 57.5t-82.5 21h-84v26h84q45 0 82.5 21t59 57t21.5 80q0 45 -22 84t-59.5 61.5t-81.5 22.5l-108 -1q-46 0 -76.5 -30.5t-30.5 -76.5v-571h-25v579q0 53 33.5 86.5t85.5 33.5h132q47 0 88 -26t65.5 -69t24.5 -93
q0 -48 -23 -88.5t-63 -64.5v-36q41 -24 63.5 -64.5t22.5 -89.5q0 -48 -24 -89t-65 -65t-89 -24h-73z" />
    <glyph glyph-name="agrave" unicode="&#xe0;" horiz-adv-x="553" 
d="M303 657h-12l-19 37h21zM65 372.5q32 59.5 87.5 93.5t123.5 34q72 0 129.5 -38t88.5 -102v140h26v-499h-16l-10 114q-42 -63 -94.5 -93.5t-123.5 -31.5q-68 0 -123.5 33t-87.5 90.5t-32 127.5q0 72 32 131.5zM89 127.5q28 -50.5 77 -79.5t110 -29t111 29t78.5 79.5
t28.5 113.5q0 66 -28 119t-78 83t-112 30q-60 0 -109 -30.5t-77.5 -83.5t-28.5 -118q0 -63 28 -113.5z" />
    <glyph glyph-name="aacute" unicode="&#xe1;" horiz-adv-x="553" 
d="M270 657h-12l10 37h21zM65 372.5q32 59.5 87.5 93.5t123.5 34q72 0 129.5 -38t88.5 -102v140h26v-499h-16l-10 114q-42 -63 -94.5 -93.5t-123.5 -31.5q-68 0 -123.5 33t-87.5 90.5t-32 127.5q0 72 32 131.5zM89 127.5q28 -50.5 77 -79.5t110 -29t111 29t78.5 79.5
t28.5 113.5q0 66 -28 119t-78 83t-112 30q-60 0 -109 -30.5t-77.5 -83.5t-28.5 -118q0 -63 28 -113.5z" />
    <glyph glyph-name="acircumflex" unicode="&#xe2;" 
d="M33 470q0 65 32.5 120t87.5 87.5t120 32.5q64 0 119.5 -32.5t88 -88t32.5 -119.5v-470h-24v296h-433v-296h-23v470zM56 322h431v138q0 62 -29 114t-78.5 82.5t-108.5 30.5t-108.5 -30.5t-78 -82.5t-28.5 -114v-138zM238 760h-21l25 40h34l25 -40h-22l-20 27z" />
    <glyph glyph-name="atilde" unicode="&#xe3;" 
d="M306 798l-50 -27l-21 25l13 6l17 -23l48 23l22 -28l-5 -3zM33 470q0 65 32.5 120t87.5 87.5t120 32.5q64 0 119.5 -32.5t88 -88t32.5 -119.5v-470h-24v296h-433v-296h-23v470zM56 322h431v138q0 62 -29 114t-78.5 82.5t-108.5 30.5t-108.5 -30.5t-78 -82.5t-28.5 -114
v-138z" />
    <glyph glyph-name="adieresis" unicode="&#xe4;" 
d="M33 470q0 65 32.5 120t87.5 87.5t120 32.5q64 0 119.5 -32.5t88 -88t32.5 -119.5v-470h-24v296h-433v-296h-23v470zM56 322h431v138q0 62 -29 114t-78.5 82.5t-108.5 30.5t-108.5 -30.5t-78 -82.5t-28.5 -114v-138zM316 764h-13v36h13v-36zM353 763h-14v37h14v-37z" />
    <glyph glyph-name="aring" unicode="&#xe5;" horiz-adv-x="553" 
d="M303 652q11 11 11 26q0 16 -10.5 27.5t-26.5 11.5t-26.5 -11t-10.5 -28q0 -15 10.5 -26t26.5 -11q15 0 26 11zM262.5 663.5q-5.5 6.5 -5.5 15.5q0 10 5.5 16t14.5 6t15 -6t6 -16q0 -9 -6.5 -15.5t-14.5 -6.5q-9 0 -14.5 6.5zM65 372.5q32 59.5 87.5 93.5t123.5 34
q72 0 129.5 -38t88.5 -102v140h26v-499h-16l-10 114q-42 -63 -94.5 -93.5t-123.5 -31.5q-68 0 -123.5 33t-87.5 90.5t-32 127.5q0 72 32 131.5zM89 127.5q28 -50.5 77 -79.5t110 -29t111 29t78.5 79.5t28.5 113.5q0 66 -28 119t-78 83t-112 30q-60 0 -109 -30.5t-77.5 -83.5
t-28.5 -118q0 -63 28 -113.5z" />
    <glyph glyph-name="ae" unicode="&#xe6;" horiz-adv-x="982" 
d="M809 32q36 13 65 36l19 -20q-67 -58 -158 -58q-70 0 -127.5 35.5t-87.5 96.5v-121h-16l-10 114q-42 -63 -94.5 -93.5t-123.5 -31.5q-68 0 -123.5 33t-87.5 90.5t-32 127.5q0 72 32 131.5t87.5 93.5t123.5 34q72 0 129.5 -38t88.5 -102v140h26v-134q30 62 87.5 98
t127.5 36q147 0 214 -141l-398 -235q28 -50 77 -77.5t107 -27.5q38 0 74 13zM381.5 44.5q47.5 25.5 77 71t34.5 102.5q-1 8 -1 24t1 24q-5 60 -34.5 107t-77 73.5t-105.5 26.5q-60 0 -109 -30.5t-77.5 -83.5t-28.5 -118q0 -63 28 -113.5t77 -79.5t110 -29q58 0 105.5 25.5z
M539 151l374 214q-28 53 -73.5 80.5t-104.5 27.5q-60 0 -109 -30.5t-77.5 -83t-28.5 -117.5q0 -51 19 -91z" />
    <glyph glyph-name="ccedilla" unicode="&#xe7;" horiz-adv-x="476" 
d="M65 372q32 59 87.5 93t123.5 34q48 0 90.5 -17.5t76.5 -50.5l-20 -16q-29 27 -67 42t-80 15q-60 0 -109 -30.5t-77.5 -83t-28.5 -117.5q0 -63 28 -114t77 -80t110 -29q38 0 74 13t65 36l19 -20q-64 -55 -148 -58v-32q34 -10 50.5 -27t16.5 -52q0 -40 -28 -59t-65 -19
q-29 0 -53.5 18t-35.5 47l21 15q10 -27 29.5 -39t38.5 -12q21 0 43 11.5t22 35.5q0 30 -22 43.5t-51 12.5v58q-62 6 -112 40t-78.5 89.5t-28.5 121.5q0 72 32 131z" />
    <glyph glyph-name="egrave" unicode="&#xe8;" horiz-adv-x="517" 
d="M484 1h-451v700h451v-26h-426l2 -353h247v-26h-247l-2 -269h426v-26zM281 763h-12l-19 37h21z" />
    <glyph glyph-name="eacute" unicode="&#xe9;" horiz-adv-x="517" 
d="M484 1h-451v700h451v-26h-426l2 -353h247v-26h-247l-2 -269h426v-26zM252 763h-12l10 37h21z" />
    <glyph glyph-name="ecircumflex" unicode="&#xea;" horiz-adv-x="517" 
d="M484 1h-451v700h451v-26h-426l2 -353h247v-26h-247l-2 -269h426v-26zM241 760h-21l25 40h34l25 -40h-22l-20 27z" />
    <glyph glyph-name="edieresis" unicode="&#xeb;" horiz-adv-x="517" 
d="M484 1h-451v700h451v-26h-426l2 -353h247v-26h-247l-2 -269h426v-26zM207 764h-13v36h13v-36zM244 763h-14v37h14v-37z" />
    <glyph glyph-name="igrave" unicode="&#xec;" horiz-adv-x="134" 
d="M101 1h-25v700h25v-700zM75 763h-12l-19 37h21z" />
    <glyph glyph-name="iacute" unicode="&#xed;" horiz-adv-x="123" 
d="M90 800l-19 -37h-12l10 37h21zM58 701v-700h-25v700h25z" />
    <glyph glyph-name="icircumflex" unicode="&#xee;" horiz-adv-x="579" 
d="M61 1h-28l2 699h35l446 -668l-4 668h34v-699h-52l-432 651zM245 760h-21l25 40h34l25 -40h-22l-20 27z" />
    <glyph glyph-name="idieresis" unicode="&#xef;" horiz-adv-x="138" 
d="M105 1h-25v700h25v-700zM57 764h-13v36h13v-36zM94 763h-14v37h14v-37z" />
    <glyph glyph-name="ntilde" unicode="&#xf1;" horiz-adv-x="579" 
d="M61 1h-28l2 699h35l446 -668l-4 668h34v-699h-52l-432 651zM277 781l-29 -21l-25 34l13 6l15 -21l29 21l22 -28l-11 -8z" />
    <glyph glyph-name="ograve" unicode="&#xf2;" horiz-adv-x="765" 
d="M363 763h-12l-19 37h21zM206 40.5q-80 47.5 -126.5 130t-46.5 180.5q0 99 46.5 181.5t126.5 130t176 47.5t176.5 -48t127 -130.5t46.5 -180.5t-46.5 -180.5t-127 -130t-176.5 -47.5t-176 47.5zM545 64.5q74 44.5 117.5 120.5t43.5 166q0 91 -43.5 167t-117.5 120.5
t-162 44.5q-89 0 -163 -44.5t-117 -120.5t-43 -167t43 -167t117 -120t163 -44q88 0 162 44.5z" />
    <glyph glyph-name="oacute" unicode="&#xf3;" horiz-adv-x="765" 
d="M395 763h-12l10 37h21zM206 40.5q-80 47.5 -126.5 130t-46.5 180.5q0 99 46.5 181.5t126.5 130t176 47.5t176.5 -48t127 -130.5t46.5 -180.5t-46.5 -180.5t-127 -130t-176.5 -47.5t-176 47.5zM545 64.5q74 44.5 117.5 120.5t43.5 166q0 91 -43.5 167t-117.5 120.5
t-162 44.5q-89 0 -163 -44.5t-117 -120.5t-43 -167t43 -167t117 -120t163 -44q88 0 162 44.5z" />
    <glyph glyph-name="ocircumflex" unicode="&#xf4;" horiz-adv-x="765" 
d="M206 40.5q-80 47.5 -126.5 130t-46.5 180.5q0 99 46.5 181.5t126.5 130t176 47.5t176.5 -48t127 -130.5t46.5 -180.5t-46.5 -180.5t-127 -130t-176.5 -47.5t-176 47.5zM545 64.5q74 44.5 117.5 120.5t43.5 166q0 91 -43.5 167t-117.5 120.5t-162 44.5q-89 0 -163 -44.5
t-117 -120.5t-43 -167t43 -167t117 -120t163 -44q88 0 162 44.5zM341 760h-21l25 40h34l25 -40h-22l-20 27z" />
    <glyph glyph-name="otilde" unicode="&#xf5;" horiz-adv-x="765" 
d="M206 40.5q-80 47.5 -126.5 130t-46.5 180.5q0 99 46.5 181.5t126.5 130t176 47.5t176.5 -48t127 -130.5t46.5 -180.5t-46.5 -180.5t-127 -130t-176.5 -47.5t-176 47.5zM545 64.5q74 44.5 117.5 120.5t43.5 166q0 91 -43.5 167t-117.5 120.5t-162 44.5q-89 0 -163 -44.5
t-117 -120.5t-43 -167t43 -167t117 -120t163 -44q88 0 162 44.5zM389 781l-29 -21l-25 34l13 6l15 -21l29 21l22 -28l-11 -8z" />
    <glyph glyph-name="odieresis" unicode="&#xf6;" horiz-adv-x="765" 
d="M206 40.5q-80 47.5 -126.5 130t-46.5 180.5q0 99 46.5 181.5t126.5 130t176 47.5t176.5 -48t127 -130.5t46.5 -180.5t-46.5 -180.5t-127 -130t-176.5 -47.5t-176 47.5zM545 64.5q74 44.5 117.5 120.5t43.5 166q0 91 -43.5 167t-117.5 120.5t-162 44.5q-89 0 -163 -44.5
t-117 -120.5t-43 -167t43 -167t117 -120t163 -44q88 0 162 44.5zM345 764h-13v36h13v-36zM382 763h-14v37h14v-37z" />
    <glyph glyph-name="oslash" unicode="&#xf8;" horiz-adv-x="553" 
d="M365 579q70 -28 112.5 -93.5t42.5 -153.5q0 -70 -32 -129t-88 -93.5t-124 -34.5q-18 0 -26 1l-17 -72l-25 5l16 72q-55 12 -98.5 48t-68 89t-24.5 114q0 77 32 137t87 93t124 33q31 0 65 -8l25 110l25 -5zM108.5 187q47.5 -62 122.5 -78l104 452q-27 7 -59 7
q-61 0 -110 -29.5t-77 -83.5t-28 -123q0 -83 47.5 -145zM387 134.5q50 30.5 78.5 82.5t28.5 115q0 80 -36.5 138.5t-98.5 82.5l-103 -448q7 -1 20 -1q61 0 111 30.5z" />
    <glyph glyph-name="ugrave" unicode="&#xf9;" 
d="M300 763h-12l-19 37h21zM153 22.5q-55 32.5 -87.5 88t-32.5 120.5v470h24l2 -454q0 -63 28.5 -116t77 -84t106.5 -31t106.5 31t77 84t28.5 116l3 454h27v-470q0 -64 -32.5 -119.5t-88 -88.5t-119.5 -33q-65 0 -120 32.5z" />
    <glyph glyph-name="uacute" unicode="&#xfa;" 
d="M331 763h-12l10 37h21zM153 22.5q-55 32.5 -87.5 88t-32.5 120.5v470h24l2 -454q0 -63 28.5 -116t77 -84t106.5 -31t106.5 31t77 84t28.5 116l3 454h27v-470q0 -64 -32.5 -119.5t-88 -88.5t-119.5 -33q-65 0 -120 32.5z" />
    <glyph glyph-name="ucircumflex" unicode="&#xfb;" 
d="M153 22.5q-55 32.5 -87.5 88t-32.5 120.5v470h24l2 -454q0 -63 28.5 -116t77 -84t106.5 -31t106.5 31t77 84t28.5 116l3 454h27v-470q0 -64 -32.5 -119.5t-88 -88.5t-119.5 -33q-65 0 -120 32.5zM224 760h-21l25 40h34l25 -40h-22l-20 27z" />
    <glyph glyph-name="udieresis" unicode="&#xfc;" 
d="M153 22.5q-55 32.5 -87.5 88t-32.5 120.5v470h24l2 -454q0 -63 28.5 -116t77 -84t106.5 -31t106.5 31t77 84t28.5 116l3 454h27v-470q0 -64 -32.5 -119.5t-88 -88.5t-119.5 -33q-65 0 -120 32.5zM205 764h-13v36h13v-36zM242 763h-14v37h14v-37z" />
    <glyph glyph-name="yacute" unicode="&#xfd;" 
d="M262 294q-64 3 -116.5 36t-82.5 87t-30 117v166h25l2 -165q0 -61 27.5 -109.5t75.5 -76t108 -27.5q59 0 106.5 27t75 75.5t29.5 110.5l5 165h26v-166q0 -61 -30 -115t-82 -87.5t-113 -37.5v-293h-26v293zM268 763h-12l10 37h21z" />
    <glyph glyph-name="ydieresis" unicode="&#xff;" 
d="M262 294q-64 3 -116.5 36t-82.5 87t-30 117v166h25l2 -165q0 -61 27.5 -109.5t75.5 -76t108 -27.5q59 0 106.5 27t75 75.5t29.5 110.5l5 165h26v-166q0 -61 -30 -115t-82 -87.5t-113 -37.5v-293h-26v293zM237 764h-13v36h13v-36zM274 763h-14v37h14v-37z" />
    <glyph glyph-name="OE" unicode="&#x152;" horiz-adv-x="1189" 
d="M1156 675h-426l2 -310v-14v-9v-20h247v-26h-247l-2 -269h426v-26h-451v210q-40 -98 -127.5 -158t-195.5 -60q-96 0 -176 47.5t-126.5 130t-46.5 180.5q0 99 46.5 181.5t126.5 130t176 47.5q108 0 195.5 -60.5t127.5 -158.5v210h451v-26zM538.5 60.5q71.5 40.5 116 110
t50.5 154.5v52q-6 85 -50.5 155t-116 110.5t-155.5 40.5q-89 0 -163 -44.5t-117 -120.5t-43 -167t43 -167t117 -120t163 -44q84 0 155.5 40.5z" />
    <glyph glyph-name="oe" unicode="&#x153;" horiz-adv-x="981" 
d="M808 32q36 13 65 36l19 -20q-67 -58 -158 -58q-81 0 -143 45.5t-86 120.5q-26 -74 -88 -120t-141 -46q-68 0 -123.5 34.5t-87.5 93.5t-32 129q0 77 32 137t87 93t124 33q82 0 144.5 -47t86.5 -126q26 74 87 118.5t140 44.5q147 0 214 -141l-398 -235q28 -50 77 -77.5
t107 -27.5q38 0 74 13zM379 44.5q47 25.5 76.5 70.5t36.5 101q-1 9 -1 26q0 11 2 33q-8 95 -68 151.5t-149 56.5q-61 0 -110 -29.5t-77 -83.5t-28 -123q0 -63 28 -115t77.5 -82.5t109.5 -30.5q56 0 103 25.5zM538 151l374 214q-28 53 -73.5 80.5t-104.5 27.5
q-57 0 -104.5 -27.5t-76.5 -76t-33 -108.5v-14q0 -12 -1 -18q3 -43 19 -78z" />
    <glyph glyph-name="Scaron" unicode="&#x160;" horiz-adv-x="512" 
d="M244 759l-25 40h21l21 -27l20 27h22l-25 -40h-34zM166 -10q-46 0 -81.5 30.5t-43.5 75.5h27q8 -34 35.5 -57t62.5 -23h175q47 0 78.5 39.5t31.5 98.5q0 38 -15 71t-40 52t-55 19h-149q-45 0 -81.5 27t-57 74.5t-20.5 107.5q0 54 22 101.5t59 76t78 28.5h149
q46 0 81.5 -30t43.5 -75h-26q-7 34 -35 56.5t-64 22.5h-149q-34 0 -64.5 -25t-49 -66.5t-18.5 -88.5q0 -82 36.5 -133t95.5 -51h149q35 0 67 -23t51.5 -61.5t19.5 -82.5q0 -45 -18.5 -82.5t-50.5 -59.5t-69 -22h-175z" />
    <glyph glyph-name="scaron" unicode="&#x161;" horiz-adv-x="512" 
d="M231 759l-25 40h21l21 -27l20 27h22l-25 -40h-34zM166 -10q-46 0 -81.5 30.5t-43.5 75.5h27q8 -34 35.5 -57t62.5 -23h175q47 0 78.5 39.5t31.5 98.5q0 38 -15 71t-40 52t-55 19h-149q-45 0 -81.5 27t-57 74.5t-20.5 107.5q0 54 22 101.5t59 76t78 28.5h149
q46 0 81.5 -30t43.5 -75h-26q-7 34 -35 56.5t-64 22.5h-149q-34 0 -64.5 -25t-49 -66.5t-18.5 -88.5q0 -82 36.5 -133t95.5 -51h149q35 0 67 -23t51.5 -61.5t19.5 -82.5q0 -45 -18.5 -82.5t-50.5 -59.5t-69 -22h-175z" />
    <glyph glyph-name="Ydieresis" unicode="&#x178;" 
d="M262 294q-64 3 -116.5 36t-82.5 87t-30 117v166h25l2 -165q0 -61 27.5 -109.5t75.5 -76t108 -27.5q59 0 106.5 27t75 75.5t29.5 110.5l5 165h26v-166q0 -61 -30 -115t-82 -87.5t-113 -37.5v-293h-26v293zM237 764h-13v36h13v-36zM274 763h-14v37h14v-37z" />
    <glyph glyph-name="zcaron" unicode="&#x17e;" horiz-adv-x="533" 
d="M217 709l-25 40h21l21 -27l20 27h22l-25 -40h-34zM477 0h-442l-2 30l429 442h-424v28h462v-31l-425 -441h402v-28z" />
    <glyph glyph-name="endash" unicode="&#x2013;" horiz-adv-x="416" 
d="M383 296h-350v26h350v-26z" />
    <glyph glyph-name="emdash" unicode="&#x2014;" horiz-adv-x="501" 
d="M468 296h-435v26h435v-26z" />
    <glyph glyph-name="quoteleft" unicode="&#x2018;" horiz-adv-x="114" 
d="M81 534l-11 -5l-37 165l24 5z" />
    <glyph glyph-name="quoteright" unicode="&#x2019;" horiz-adv-x="114" 
d="M81 694l-37 -165l-11 5l24 165z" />
    <glyph glyph-name="quotesinglbase" unicode="&#x201a;" horiz-adv-x="114" 
d="M81 52l-37 -165l-11 5l24 165z" />
    <glyph glyph-name="quotedblleft" unicode="&#x201c;" horiz-adv-x="223" 
d="M81 534l-11 -5l-37 165l24 5zM190 534l-11 -5l-37 165l24 5z" />
    <glyph glyph-name="quotedblright" unicode="&#x201d;" horiz-adv-x="223" 
d="M81 694l-37 -165l-11 5l24 165zM190 694l-37 -165l-11 5l24 165z" />
    <glyph glyph-name="quotedblbase" unicode="&#x201e;" horiz-adv-x="223" 
d="M81 54l-37 -165l-11 5l24 165zM190 54l-37 -165l-11 5l24 165z" />
    <glyph glyph-name="dagger" unicode="&#x2020;" horiz-adv-x="416" 
d="M212 0h-27v296h-152v26h152v267h27v-267h171v-26h-171v-296z" />
    <glyph glyph-name="bullet" unicode="&#x2022;" horiz-adv-x="144" 
d="M44 228q-11 11 -11 27q0 17 11 28.5t27 11.5q17 0 28.5 -11.5t11.5 -28.5q0 -16 -11.5 -27t-28.5 -11q-16 0 -27 11z" />
    <glyph glyph-name="ellipsis" unicode="&#x2026;" horiz-adv-x="355" 
d="M39 7.5q-6 6.5 -6 15.5q0 10 6 16.5t16 6.5t16.5 -6.5t6.5 -16.5q0 -9 -6.5 -15.5t-16.5 -6.5t-16 6.5zM160 7.5q-6 6.5 -6 15.5q0 10 6 16.5t16 6.5t16.5 -6.5t6.5 -16.5q0 -9 -6.5 -15.5t-16.5 -6.5t-16 6.5zM283 8.5q-6 6.5 -6 15.5q0 10 6 16.5t16 6.5t16.5 -6.5
t6.5 -16.5q0 -9 -6.5 -15.5t-16.5 -6.5t-16 6.5z" />
    <glyph glyph-name="perthousand" unicode="&#x2030;" horiz-adv-x="1139" 
d="M106 427q-34 20 -53.5 55t-19.5 77t19.5 77t53.5 55t74 20t74 -20t54 -55t20 -77t-20 -77t-54 -55t-74 -20t-74 20zM454 700l-123 -700h-25l122 700h26zM245 446.5q29 17.5 46 47.5t17 65t-17 65t-46 47.5t-63 17.5q-53 0 -90 -38t-37 -92q0 -55 37 -92.5t90 -37.5
q34 0 63 17.5zM511 10.5q-34 20.5 -53.5 55.5t-19.5 76q0 42 19.5 77t53.5 55.5t74 20.5q41 0 75 -20.5t53.5 -55.5t19.5 -77q0 -41 -20 -76t-54 -55.5t-74 -20.5t-74 20.5zM884 10.5q-34 20.5 -53.5 55.5t-19.5 76q0 42 19.5 77t53.5 55.5t74 20.5t74 -20.5t54 -55.5
t20 -77q0 -41 -20 -76t-54 -55.5t-74 -20.5t-74 20.5zM675 50.5q36 37.5 36 91.5t-36 92t-88 38q-34 0 -63.5 -17.5t-46.5 -47.5t-17 -65q0 -55 37 -92t90 -37q52 0 88 37.5zM1047.5 50.5q35.5 37.5 35.5 91.5t-35.5 92t-87.5 38q-53 0 -89.5 -38t-36.5 -92q0 -55 36.5 -92
t89.5 -37q52 0 87.5 37.5z" />
    <glyph glyph-name="guilsinglleft" unicode="&#x2039;" horiz-adv-x="235" 
d="M197 138l-30 -26l-134 152l141 149l28 -28l-117 -121z" />
    <glyph glyph-name="guilsinglright" unicode="&#x203a;" horiz-adv-x="235" 
d="M202 264l-134 -152l-30 26l112 126l-117 121l28 28z" />
    <glyph glyph-name="Euro" unicode="&#x20ac;" horiz-adv-x="778" 
d="M612.5 41q54.5 21 98.5 59l18 -20q-48 -43 -106.5 -65t-123.5 -22q-109 0 -195.5 60t-126.5 159h-144v26h134q-17 54 -17 111h-117v26h118q5 93 53 170t125.5 121t169.5 44q71 0 134 -26.5t112 -75.5l-22 -17q-45 44 -103 68t-120 24q-85 0 -156.5 -40.5t-115.5 -111
t-50 -156.5h205v-26h-206q0 -56 19 -111h187v-26h-177q39 -87 118 -139.5t176 -52.5q58 0 112.5 21z" />
    <glyph glyph-name="trademark" unicode="&#x2122;" horiz-adv-x="610" 
d="M147 445h-11v271h-103v11h230v-11h-116v-271zM293 445h-12l1 281h17l130 -259l128 259h20l-1 -281h-13v266l-129 -266h-10l-131 266v-266z" />
    <glyph glyph-name="uni0308.case" horiz-adv-x="0" 
d="M-70 764h-13v36h13v-36zM-33 763h-14v37h14v-37z" />
    <glyph glyph-name="gravecomb.case" horiz-adv-x="0" 
d="M-33 763h-12l-19 37h21z" />
    <glyph glyph-name="acutecomb.case" horiz-adv-x="0" 
d="M-52 763h-12l10 37h21z" />
    <glyph glyph-name="uni0302.case" horiz-adv-x="0" 
d="M-96 760h-21l25 40h34l25 -40h-22l-20 27z" />
    <glyph glyph-name="tildecomb.case" horiz-adv-x="0" 
d="M-58 781l-29 -21l-25 34l13 6l15 -21l29 21l22 -28l-11 -8z" />
    <glyph glyph-name="T.small" horiz-adv-x="402" 
d="M328 1h-27v674h-256v26h571v-26h-288v-674z" />
    <glyph glyph-name="r.small" horiz-adv-x="184" 
d="M33 0v500h26v-103q25 45 66.5 73.5t91.5 29.5v-24q-44 -3 -80 -28.5t-57 -66t-21 -86.5v-295h-26z" />
    <glyph glyph-name="foxtype" horiz-adv-x="288" 
d="M254 -1h-228v701h228v-701zM79 636v-64l104 1v63h-18v-39h-27v32h-17v-32h-25v37zM79 482l104 1v24h-35v11q0 20 -10 31t-25 11q-19 0 -26.5 -11t-7.5 -33v-34zM96 516q0 18 17 18q18 0 18 -18v-9h-35v9zM79 409v-105h19v27h85v25l-85 -1v37l46 24h39v25h-39l-65 33v-26
l46 -19zM113 259l-34 -15l1 -27l48 27l55 -29v26l-39 18l39 18v26l-56 -30l-48 28v-26zM91.5 132q14.5 -12 40.5 -12q27 0 40.5 12t13.5 34q0 47 -55 47q-25 0 -39.5 -12t-14.5 -35q0 -22 14.5 -34zM131 188q37 0 37 -22q0 -11 -10 -16t-26 -5q-37 0 -37 21q0 22 36 22z
M80 116v-62h104v25h-42v30h-17v-30h-28v35z" />
    </font>
</defs>
</svg>
